<?xml version="1.0" standalone="no"?>
<!DOCTYPE svg PUBLIC "-//W3C//DTD SVG 20010904//EN"
 "http://www.w3.org/TR/2001/REC-SVG-20010904/DTD/svg10.dtd">
<svg version="1.0" xmlns="http://www.w3.org/2000/svg"
 width="900.000000pt" height="900.000000pt" viewBox="0 0 900.000000 900.000000"
 preserveAspectRatio="xMidYMid meet">
<metadata>
Created by potrace 1.14, written by Peter Selinger 2001-2017
</metadata>
<g transform="translate(0.000000,900.000000) scale(0.100000,-0.100000)"
fill="#000000" stroke="none">
<path d="M3530 8990 c-928 -25 -1932 -88 -2513 -156 l-57 -7 0 -2543 c0 -2789
-4 -2592 60 -2944 219 -1195 845 -2122 1853 -2744 432 -267 1011 -490 1491
-576 l118 -21 127 26 c790 163 1479 486 2036 954 125 105 344 325 450 454 498
601 790 1316 905 2210 20 155 20 207 20 2671 l0 2513 -77 7 c-949 83 -1434
113 -2353 146 -380 14 -1677 20 -2060 10z m485 -465 c116 -17 263 -62 355
-108 l65 -32 3 -1067 2 -1067 -91 40 c-186 81 -401 131 -559 131 -123 0 -198
-11 -531 -83 -430 -92 -663 -125 -819 -117 l-65 3 -3 1089 -2 1089 47 -7 c102
-13 293 -26 393 -26 165 0 269 17 430 70 129 43 299 82 400 93 90 10 285 5
375 -8z m1382 4 c43 -6 130 -28 193 -49 253 -84 463 -114 785 -112 132 2 258
3 280 5 l40 2 3 -1076 2 -1077 -34 -6 c-91 -17 -432 26 -871 110 -511 98 -502
97 -675 91 -167 -6 -249 -22 -401 -77 -48 -17 -107 -44 -132 -60 -25 -16 -47
-27 -49 -25 -1 2 -2 480 0 1062 l2 1059 69 26 c155 61 359 113 516 131 67 8
198 6 272 -4z m-3601 -538 c96 -44 146 -171 112 -285 -17 -55 -91 -131 -143
-145 -94 -26 -182 -3 -243 63 -100 108 -68 301 59 364 57 28 156 30 215 3z
m5176 -109 c70 -4 104 0 176 19 80 20 95 22 144 11 97 -22 168 -86 199 -179
13 -40 6 -52 -17 -32 -11 9 -42 14 -88 14 -68 0 -78 -3 -231 -76 -187 -90
-255 -116 -324 -125 l-51 -7 0 211 0 210 53 -20 c31 -12 87 -22 139 -26z
m-4697 -127 l0 -130 -132 -3 -133 -3 0 136 0 136 133 -3 132 -3 0 -130z m-470
-691 c111 -57 148 -223 74 -338 -69 -110 -243 -129 -348 -40 -124 106 -85 334
65 390 54 20 159 14 209 -12z m5035 -17 c50 -15 217 -14 348 2 102 12 116 12
157 -3 55 -22 108 -81 135 -153 27 -71 26 -76 -12 -57 -18 9 -59 19 -93 21
-58 5 -64 3 -178 -57 -157 -82 -304 -130 -398 -130 l-29 0 0 201 c0 188 1 201
18 194 9 -4 33 -12 52 -18z m-4562 -209 l-3 -133 -132 -3 -133 -3 0 136 0 135
135 0 136 0 -3 -132z m2411 -912 c131 -54 188 -64 249 -43 l42 15 0 -26 c0
-14 -12 -38 -27 -54 l-27 -28 37 0 c53 0 99 22 130 61 l27 34 0 -48 c0 -69
-22 -104 -83 -133 -29 -13 -64 -24 -79 -24 -16 0 -28 -4 -28 -10 0 -5 4 -10 9
-10 5 0 23 -11 40 -25 21 -19 32 -38 36 -69 12 -80 66 -136 117 -123 25 7 22
-10 -7 -38 -28 -29 -45 -31 -86 -9 -17 8 -33 14 -35 11 -2 -2 4 -24 15 -48 11
-24 24 -77 30 -117 15 -96 32 -135 78 -177 32 -29 35 -35 19 -41 -22 -9 -54 6
-100 46 l-36 32 16 -39 c12 -28 15 -57 11 -113 -6 -78 -36 -181 -55 -188 -6
-2 -29 22 -51 52 -22 30 -45 58 -51 61 -22 13 -22 -4 -1 -38 45 -74 78 -217
66 -295 -6 -38 -8 -41 -26 -32 -10 6 -28 28 -38 49 -11 20 -27 44 -37 52 -16
13 -17 11 -10 -29 9 -57 46 -130 86 -167 43 -40 115 -141 140 -196 14 -32 20
-66 20 -126 0 -74 -26 -292 -36 -302 -9 -10 -45 35 -76 95 -37 72 -53 82 -43
27 9 -55 50 -140 90 -189 48 -58 80 -202 59 -258 -10 -26 -22 -19 -50 32 -57
100 -81 109 -48 19 34 -96 54 -206 54 -303 0 -69 -6 -104 -31 -178 -16 -50
-34 -94 -38 -99 -4 -4 -22 57 -41 135 -52 225 -48 213 -72 191 -11 -10 -46
-56 -78 -103 -32 -47 -69 -95 -83 -108 l-25 -23 -7 73 c-16 162 -97 469 -142
537 -13 20 -17 22 -24 9 -26 -47 -211 -558 -225 -625 -25 -115 -23 -305 5
-407 11 -44 20 -81 18 -83 -2 -2 -22 36 -45 84 -102 215 -128 507 -58 659 13
29 36 60 50 69 30 20 34 56 12 109 -23 54 -33 51 -45 -15 -10 -60 -33 -109
-50 -109 -5 0 -23 14 -41 30 -32 30 -33 31 -28 109 3 54 11 88 24 109 64 101
76 126 81 162 5 38 -7 70 -27 70 -5 0 -14 -15 -20 -34 -13 -40 -56 -90 -70
-81 -18 11 -50 136 -50 194 0 128 68 305 161 420 72 89 66 105 -17 46 -27 -19
-57 -35 -68 -35 -17 0 -18 7 -14 90 5 75 11 102 37 155 50 100 152 175 239
175 24 0 23 1 -9 23 -58 39 -50 51 47 69 92 17 162 53 197 99 18 25 37 119 24
119 -4 0 -25 -20 -47 -44 -62 -67 -125 -91 -164 -63 -17 12 -15 16 18 49 44
44 45 61 5 100 -29 30 -32 30 -95 24 -72 -7 -110 6 -138 48 -9 14 -16 27 -16
29 0 2 22 3 48 3 35 0 62 8 104 32 66 38 131 49 183 32 20 -7 61 -36 91 -66
53 -54 54 -54 55 -27 4 97 -29 139 -134 173 -43 14 -56 24 -78 61 -35 60 -100
99 -177 106 -52 5 -61 9 -66 29 -9 35 -54 82 -86 89 -43 10 -95 -19 -118 -65
l-19 -39 -25 27 c-51 55 -61 103 -33 170 18 43 77 107 118 128 37 20 51 8 72
-57 10 -29 27 -56 41 -66 39 -25 48 -5 24 51 -12 25 -20 61 -18 79 3 28 7 32
34 35 20 2 36 -4 49 -18 10 -11 21 -20 25 -20 4 0 19 18 34 41 18 27 45 49 79
65 80 38 160 30 306 -30z m-1480 -106 c20 -10 46 -29 58 -42 59 -63 92 -214
75 -343 -8 -57 -7 -83 1 -96 14 -22 96 -59 131 -59 14 0 26 -2 26 -5 0 -17
-34 -66 -61 -90 -27 -22 -40 -26 -78 -23 -25 3 -68 11 -95 19 -42 12 -50 12
-54 0 -2 -7 -33 -41 -68 -75 -62 -61 -64 -64 -64 -113 0 -40 6 -58 24 -80 37
-44 42 -93 15 -141 -21 -36 -22 -43 -11 -80 20 -68 60 -71 253 -22 101 26 154
22 210 -15 23 -14 56 -29 73 -32 40 -6 50 11 40 75 -6 41 -11 47 -75 87 -77
50 -89 67 -89 124 0 47 42 169 77 225 l25 39 17 -51 c33 -97 67 -134 216 -233
86 -58 119 -94 152 -166 36 -79 40 -146 13 -244 -24 -89 -23 -146 4 -198 14
-27 14 -32 -14 -82 -85 -159 -89 -396 -9 -520 29 -47 31 -52 20 -94 -27 -108
-6 -214 56 -277 35 -36 36 -37 24 -82 -15 -62 -14 -201 3 -266 28 -109 -6 -73
-67 73 -55 128 -100 198 -167 261 -81 76 -233 136 -343 136 l-50 0 6 -40 c3
-23 17 -56 34 -76 61 -78 93 -127 103 -162 12 -44 13 -202 1 -220 -6 -10 -33
12 -100 79 -81 83 -93 100 -111 157 -11 35 -20 70 -20 78 0 26 -47 -14 -100
-85 -66 -88 -94 -170 -94 -283 -1 -47 -3 -85 -5 -82 -2 2 -25 58 -52 125 l-48
122 129 166 c103 132 144 196 204 311 40 80 77 156 80 170 12 46 -101 -87
-253 -296 -79 -110 -156 -214 -169 -233 l-25 -34 -51 104 -51 104 42 52 c94
117 144 203 224 385 78 177 40 132 -185 -219 -53 -83 -103 -157 -111 -163 -11
-10 -23 -5 -59 25 -25 20 -49 34 -55 31 -9 -6 -16 -45 -27 -159 l-7 -69 -83
-88 c-81 -85 -190 -177 -199 -169 -2 3 -7 52 -10 109 l-6 105 116 130 c112
127 223 286 307 442 22 41 37 77 33 81 -4 4 -25 -13 -47 -38 -51 -58 -298
-365 -363 -452 -27 -37 -53 -66 -56 -65 -4 1 -30 33 -58 71 l-52 68 115 172
c107 158 201 338 222 422 7 27 6 28 -10 15 -18 -15 -211 -301 -317 -469 -50
-80 -68 -102 -84 -100 -18 3 -20 10 -18 73 0 39 13 133 27 209 29 157 30 166
15 166 -25 0 -87 -199 -104 -335 -14 -118 -11 -112 -59 -118 -90 -13 -120 -46
-76 -84 11 -10 29 -26 39 -35 37 -32 44 -89 28 -227 -20 -165 -11 -216 50
-297 37 -49 31 -64 -26 -64 -34 0 -56 -6 -75 -21 -15 -12 -29 -19 -31 -17 -8
7 -33 140 -49 253 -34 251 -29 586 14 919 12 88 19 169 17 180 -5 31 -52 -74
-269 -604 -243 -594 -244 -596 -263 -580 -56 46 -42 228 36 489 81 271 203
534 345 748 46 69 84 129 84 134 0 31 -50 -8 -169 -129 -221 -225 -352 -316
-474 -329 -111 -11 -107 -4 110 203 421 402 544 527 529 541 -2 3 -36 -14 -75
-37 -155 -90 -312 -140 -442 -140 -78 0 -179 16 -179 28 0 4 26 20 58 37 127
67 371 210 466 275 172 117 278 225 293 300 l6 32 -89 -45 c-187 -94 -374
-144 -503 -134 -74 5 -141 22 -141 35 0 4 24 20 53 36 86 47 340 206 728 453
360 229 368 233 420 233 30 1 65 7 79 15 23 13 20 14 -48 15 -132 0 -178 39
-151 127 14 44 39 71 39 41 0 -8 12 -25 26 -39 23 -22 34 -24 117 -23 83 0
105 5 227 47 74 26 155 51 180 57 59 12 134 4 179 -20z m3121 -5 c36 -9 108
-34 162 -56 102 -42 185 -61 231 -52 20 4 27 1 27 -11 0 -26 -36 -54 -77 -61
-89 -15 -82 -24 42 -60 131 -38 335 -151 335 -186 0 -5 -12 -9 -26 -9 -23 0
-15 -11 78 -112 56 -62 193 -201 303 -311 195 -194 199 -198 161 -193 -72 10
-224 113 -424 290 -57 50 -108 93 -114 95 -29 10 42 -78 177 -218 198 -207
310 -333 398 -450 85 -113 170 -247 165 -260 -5 -14 -140 32 -245 85 -154 78
-195 122 -378 408 -113 176 -170 246 -200 246 -23 0 -22 -4 96 -197 457 -752
495 -846 506 -1243 10 -359 -28 -629 -85 -618 -18 3 -71 197 -197 721 -105
438 -187 686 -277 840 -46 80 -89 140 -95 133 -2 -2 19 -62 46 -134 117 -303
186 -521 226 -720 40 -198 58 -374 39 -390 -5 -5 -31 -17 -59 -27 -80 -29
-181 -82 -218 -115 -19 -16 -36 -30 -38 -30 -2 0 -5 62 -5 139 -2 159 -15 276
-51 446 -30 144 -86 334 -114 384 l-20 36 5 -100 c3 -55 19 -192 36 -304 16
-112 30 -217 30 -233 0 -25 -20 -4 -154 159 -178 216 -266 308 -266 277 0 -20
109 -220 169 -309 19 -27 86 -101 149 -163 l115 -113 -6 -97 c-5 -100 -23
-192 -37 -192 -12 0 -96 94 -259 290 -280 337 -341 403 -358 386 -3 -3 30 -73
73 -157 94 -180 136 -232 364 -450 l163 -156 -27 -50 c-15 -27 -44 -68 -64
-92 l-37 -42 -109 84 -110 85 -12 62 c-7 34 -18 68 -25 76 -14 17 -52 18 -80
3 -18 -9 -36 6 -161 135 -174 182 -207 194 -127 46 52 -95 108 -170 158 -210
l39 -32 -39 -66 c-21 -37 -42 -81 -45 -99 -3 -18 -10 -36 -15 -39 -6 -3 -60
44 -122 104 -123 119 -157 145 -157 115 0 -10 15 -45 34 -78 30 -55 119 -139
205 -196 l24 -15 -28 -85 c-23 -69 -36 -92 -74 -129 -61 -59 -313 -270 -323
-270 -11 0 34 100 77 170 43 70 135 158 207 197 66 35 73 60 28 104 l-31 32
-110 -5 -109 -6 0 32 c0 17 -11 87 -24 156 -13 69 -27 155 -31 193 -4 37 -9
67 -11 67 -20 0 -92 -49 -132 -89 -48 -48 -49 -51 -56 -123 -10 -106 -22 -144
-73 -231 -25 -42 -53 -98 -63 -124 -17 -46 -18 -46 -31 -22 -7 14 -15 75 -19
146 -5 115 -7 124 -36 165 -66 92 -96 169 -113 289 -8 59 -7 66 15 92 48 57
58 171 23 282 -23 74 -22 85 7 342 23 197 1 277 -107 394 -45 49 -48 56 -40
84 6 16 13 53 16 80 10 78 8 75 64 57 49 -15 52 -15 79 5 29 21 37 34 76 125
18 42 35 64 66 84 71 47 86 103 50 183 -11 24 -18 46 -16 48 2 3 30 -8 61 -22
100 -48 117 -109 66 -236 -16 -40 -27 -78 -24 -86 9 -22 139 -17 193 8 80 36
111 77 131 171 15 69 32 101 84 157 72 77 70 123 -7 162 -40 20 -40 21 -35 65
l5 45 -68 -65 c-88 -86 -123 -93 -232 -50 -48 18 -78 16 -140 -11 -14 -6 -18
-2 -18 17 0 28 33 62 70 73 45 14 119 54 155 86 39 34 47 78 21 115 -40 56 62
217 171 270 50 25 56 26 98 14 39 -11 48 -11 63 3 26 23 111 58 162 66 55 8
154 -2 240 -24z m-2513 -337 c36 -40 53 -43 248 -43 177 0 193 -2 236 -22 41
-21 97 -78 86 -89 -2 -2 -20 3 -40 11 -50 21 -142 19 -277 -6 -144 -26 -255
-24 -297 7 -38 28 -73 82 -73 111 0 29 24 79 54 111 l21 24 12 -43 c7 -23 21
-51 30 -61z m744 -2146 c35 -135 42 -264 19 -352 -16 -63 -18 -155 -6 -255 l9
-70 18 85 c26 118 77 217 156 301 67 71 83 81 83 53 0 -9 15 -64 32 -123 28
-91 33 -121 33 -216 0 -106 -1 -113 -36 -185 -20 -41 -59 -112 -88 -158 -62
-99 -81 -167 -80 -282 l0 -85 23 75 c44 145 76 210 145 300 59 78 90 159 117
304 27 148 44 196 98 270 30 42 36 47 41 30 4 -10 18 -44 32 -75 23 -51 25
-66 21 -145 -6 -104 -29 -168 -113 -314 -60 -104 -58 -117 14 -81 51 26 88 75
116 154 l23 62 17 -40 c10 -22 18 -64 19 -94 1 -51 -1 -55 -39 -85 -64 -49
-110 -100 -130 -142 -20 -41 -34 -164 -19 -164 14 0 144 163 187 232 47 78 67
144 67 224 0 52 6 72 35 126 81 148 106 208 122 289 20 106 43 161 82 188 l31
22 0 -42 c0 -23 7 -84 16 -136 22 -127 16 -214 -18 -283 -15 -30 -25 -56 -23
-58 2 -2 30 14 62 35 32 22 73 45 92 51 38 13 141 16 141 4 0 -4 -19 -13 -41
-20 -60 -19 -124 -66 -159 -117 -17 -24 -53 -97 -80 -162 -83 -196 -120 -252
-210 -318 -28 -21 -60 -55 -71 -76 l-19 -39 25 0 c81 0 215 88 337 221 52 56
117 114 173 152 178 122 236 203 311 438 36 110 69 174 112 212 25 23 32 13
39 -58 12 -111 -40 -361 -92 -451 -13 -22 -43 -63 -67 -90 -74 -84 -75 -86
-43 -74 66 25 277 139 358 193 49 33 119 90 156 127 65 64 86 94 214 292 37
58 75 102 114 133 58 46 242 145 269 145 9 0 -4 -25 -36 -67 -54 -72 -54 -71
-70 -183 -7 -56 -23 -101 -60 -177 -28 -56 -50 -104 -50 -107 0 -12 26 -5 75
21 37 19 59 24 78 19 36 -9 34 -18 -9 -41 -20 -11 -62 -51 -94 -90 -167 -203
-266 -252 -615 -306 -244 -37 -309 -53 -424 -101 -102 -43 -168 -82 -331 -196
-153 -107 -234 -152 -335 -187 -49 -17 -100 -36 -112 -43 -24 -13 -32 -42 -12
-42 6 0 50 -19 97 -42 77 -39 94 -43 173 -46 111 -5 152 8 329 103 191 102
301 157 307 152 5 -5 -104 -124 -222 -243 -111 -112 -232 -169 -443 -211 -98
-19 -321 -23 -468 -9 -80 8 -95 6 -135 -11 -43 -20 -99 -65 -99 -80 0 -4 29
-7 64 -5 74 4 106 -9 176 -71 129 -114 272 -127 360 -32 48 52 97 70 190 70
73 0 92 -4 135 -27 61 -32 108 -78 81 -78 -39 0 -99 -47 -156 -121 -113 -145
-181 -184 -325 -183 -96 0 -127 12 -282 112 -224 144 -282 158 -320 78 -25
-53 -6 -97 90 -219 121 -151 132 -215 54 -304 -83 -94 -206 -81 -324 34 -52
52 -99 113 -86 113 4 0 30 -7 57 -15 72 -22 138 -19 171 7 24 19 26 26 21 61
-4 22 -31 83 -61 135 -33 58 -57 113 -61 141 -14 93 -11 93 -113 0 -277 -251
-431 -319 -566 -251 -16 8 -88 71 -159 139 -160 155 -294 266 -380 317 -37 22
-69 43 -72 48 -9 14 228 9 322 -7 122 -21 219 -69 276 -137 89 -107 143 -155
181 -162 52 -10 106 8 155 50 58 50 202 224 202 244 0 36 -193 96 -340 107
-85 6 -227 -14 -272 -38 -41 -22 -14 17 66 97 105 106 169 138 271 138 110 1
207 -54 295 -165 21 -27 41 -45 44 -40 10 16 -23 104 -60 158 -92 133 -300
203 -474 159 -36 -9 -139 -52 -230 -95 -180 -87 -238 -104 -302 -90 -132 30
-383 208 -501 356 -61 78 -102 142 -94 149 3 3 34 -14 69 -37 84 -58 236 -125
326 -145 50 -11 102 -15 165 -12 81 4 100 9 163 40 107 55 174 72 289 71 122
0 224 -24 400 -94 70 -28 128 -49 131 -47 6 7 -135 122 -195 159 -33 20 -97
48 -143 64 -164 55 -419 44 -611 -26 -129 -48 -186 -38 -327 56 -37 25 -82 48
-99 51 -18 4 -30 11 -28 17 6 20 115 88 171 108 68 23 175 25 258 3 33 -8 62
-13 64 -11 8 8 -65 58 -119 82 -28 13 -79 26 -112 30 -210 23 -404 58 -615
110 -149 38 -379 109 -423 132 -27 14 -28 15 -12 33 33 37 98 53 183 47 42 -3
88 -9 102 -13 20 -5 17 1 -20 32 -109 95 -175 192 -186 276 -3 23 1 92 10 151
18 117 15 163 -15 215 -10 18 -19 35 -19 38 0 10 73 3 103 -10 77 -33 112
-100 127 -243 27 -259 49 -335 112 -388 36 -30 42 -28 28 9 -22 59 -5 141 38
179 20 18 20 18 27 -2 16 -51 88 -140 144 -180 47 -33 126 -71 147 -71 1 0 12
13 23 29 l21 29 -29 64 c-16 35 -37 91 -45 123 -32 118 -33 415 -1 415 25 0
93 -153 134 -303 47 -172 51 -181 144 -312 73 -105 115 -155 129 -155 13 0 9
129 -7 236 -20 135 -8 204 52 287 39 53 49 57 58 25 13 -45 69 -116 116 -148
61 -41 72 -72 69 -198 -3 -167 -3 -170 23 -214 37 -63 164 -154 374 -270 236
-129 341 -206 404 -293 38 -53 51 -57 42 -12 -18 93 -64 140 -293 294 -257
173 -351 271 -401 420 -22 64 -23 81 -20 280 3 246 -3 271 -86 355 -26 26 -44
50 -42 53 11 10 110 -23 164 -56 157 -94 328 -377 390 -644 21 -93 43 -130
135 -231 45 -49 102 -117 127 -151 25 -35 46 -63 47 -63 2 0 -12 53 -29 118
-79 288 -86 605 -19 832 23 79 80 214 110 262 33 52 35 48 75 -110z m-1771
-319 c0 -57 7 -114 21 -165 12 -44 18 -82 14 -86 -17 -17 -175 177 -175 215 0
9 122 123 132 123 5 0 8 -39 8 -87z m3740 -196 l34 -30 -64 -58 -64 -57 -46
26 c-25 14 -47 27 -49 28 -3 3 16 158 25 202 4 22 7 21 67 -29 34 -28 78 -65
97 -82z m-156 -169 c17 -14 17 -16 -14 -42 -40 -33 -90 -60 -90 -48 0 5 11 35
25 66 27 60 29 61 79 24z m636 -178 c-40 -159 -130 -353 -197 -428 l-33 -37
-20 24 c-17 19 -20 38 -20 113 0 49 7 119 15 156 15 66 16 68 68 95 59 30 158
110 183 145 9 13 18 21 21 19 2 -3 -5 -42 -17 -87z m-4803 23 c105 -42 104
-41 123 -169 18 -113 -12 -244 -55 -244 -25 0 -107 186 -155 355 -10 34 -21
73 -25 85 -6 18 -4 22 6 17 8 -4 56 -23 106 -44z"/>
<path d="M3523 8209 c-91 -45 -146 -176 -112 -266 23 -61 99 -116 179 -129 36
-6 47 -3 95 31 30 21 55 42 55 47 0 5 -24 6 -58 2 -68 -7 -104 7 -147 58 l-28
33 87 82 87 83 -21 30 c-39 55 -71 62 -137 29z m55 -62 l32 -33 -50 -49 c-57
-56 -70 -52 -70 21 0 38 29 94 49 94 4 0 21 -15 39 -33z"/>
<path d="M3938 8190 c-69 -21 -158 -101 -158 -143 0 -25 28 -71 55 -91 17 -13
15 -17 -41 -69 l-59 -55 55 -26 c77 -36 139 -35 218 5 128 64 147 142 49 204
l-28 18 48 43 48 44 -35 30 c-31 27 -89 51 -115 49 -5 0 -22 -4 -37 -9z m28
-86 c24 -14 44 -28 44 -32 0 -3 -7 -14 -17 -24 -25 -28 -81 -24 -115 9 -31 29
-34 43 -16 61 19 19 56 14 104 -14z m67 -209 c10 -23 -3 -44 -35 -61 -28 -14
-34 -14 -73 0 -38 15 -85 52 -74 59 2 2 21 17 42 35 l38 32 48 -25 c27 -13 51
-31 54 -40z"/>
<path d="M3247 8153 l-37 -26 -44 23 -43 23 -30 -21 c-56 -40 -59 -49 -19 -66
l35 -15 3 -138 3 -138 40 0 40 0 3 147 c2 127 5 147 20 153 11 4 25 -4 44 -27
l26 -33 43 30 c43 31 66 64 36 52 -10 -4 -26 6 -46 29 -17 18 -32 34 -33 33
-2 0 -20 -12 -41 -26z"/>
<path d="M2929 8139 c-13 -18 -18 -19 -59 -10 -70 16 -162 14 -190 -6 -86 -57
-120 -115 -120 -205 0 -86 21 -125 90 -165 63 -38 123 -43 210 -17 l54 16 21
-26 c33 -41 62 -32 30 10 -10 13 -14 45 -15 102 0 87 -14 109 -25 42 -8 -46
-43 -93 -86 -115 -85 -44 -174 22 -186 139 -14 137 89 239 192 190 46 -21 65
-50 73 -110 4 -26 13 -49 20 -52 9 -3 12 24 12 112 0 64 -2 116 -4 116 -2 0
-10 -9 -17 -21z"/>
<path d="M4195 7990 c-11 -18 5 -30 41 -30 40 0 45 16 8 30 -32 13 -41 13 -49
0z"/>
<path d="M4192 7918 c5 -15 58 -30 78 -22 12 4 12 8 -4 20 -24 17 -79 19 -74
2z"/>
<path d="M3745 7728 c-6 -15 -20 -18 -73 -18 -112 0 -192 -55 -192 -133 0 -46
26 -66 133 -108 102 -39 117 -51 117 -100 0 -53 -31 -73 -103 -67 -83 8 -106
22 -130 78 -11 28 -25 50 -30 50 -11 0 -5 -165 6 -176 4 -4 17 3 28 15 14 15
29 21 43 17 59 -14 142 -16 166 -4 58 31 91 121 71 189 -15 49 -52 73 -134 88
-69 12 -107 33 -107 61 0 26 51 60 92 60 34 0 94 -30 116 -58 29 -37 37 36 12
103 -7 18 -9 19 -15 3z"/>
<path d="M3301 7674 c-23 -43 -83 -105 -112 -117 -11 -4 -8 -10 9 -24 22 -18
24 -27 25 -129 2 -121 15 -156 64 -175 22 -8 30 -6 55 18 17 15 34 36 40 46 8
16 7 18 -10 13 -12 -4 -28 1 -42 12 -21 17 -23 28 -24 108 -1 71 2 89 14 91 8
1 36 5 63 8 33 4 47 11 47 22 0 13 -9 15 -54 9 -44 -5 -55 -3 -60 10 -10 27
-7 73 8 109 22 51 4 50 -23 -1z"/>
<path d="M4147 7692 c-23 -25 -21 -65 3 -87 18 -16 23 -17 45 -5 31 16 34 68
7 93 -24 22 -35 21 -55 -1z"/>
<path d="M2680 7614 c-104 -62 -160 -145 -160 -243 0 -64 23 -107 77 -143 87
-58 135 -47 181 43 1 4 -20 9 -48 11 -54 5 -90 26 -124 72 -30 39 -29 133 0
173 30 39 47 39 92 -1 l39 -35 31 32 32 33 -31 42 c-17 23 -34 42 -37 42 -4 0
-27 -12 -52 -26z"/>
<path d="M2955 7581 c-54 -33 -85 -78 -85 -125 0 -23 6 -51 14 -61 12 -17 10
-22 -15 -49 -33 -36 -38 -83 -13 -122 27 -40 52 -49 77 -26 25 22 61 42 76 42
5 0 12 -13 16 -30 4 -16 11 -32 16 -36 6 -3 31 14 57 37 54 49 63 64 35 55
-38 -12 -46 15 -41 136 l6 111 -31 43 c-35 50 -62 56 -112 25z m33 -66 c11
-13 22 -43 26 -66 5 -33 3 -44 -11 -55 -71 -53 -149 48 -92 120 26 33 52 33
77 1z m32 -194 c0 -41 -3 -50 -22 -54 -23 -6 -67 12 -88 38 -21 25 0 51 38 47
17 -2 33 2 37 7 3 6 13 11 21 11 10 0 14 -13 14 -49z"/>
<path d="M3925 7549 c-68 -56 -95 -102 -95 -163 0 -62 30 -117 80 -145 61 -34
80 -28 119 35 31 52 37 89 7 48 -14 -18 -17 -18 -57 -4 -55 19 -89 67 -89 124
0 23 5 47 12 54 7 7 37 12 68 12 42 0 61 5 73 18 23 25 22 29 -13 47 -42 22
-50 20 -105 -26z"/>
<path d="M4140 7494 c-50 -47 -63 -68 -34 -57 8 3 26 0 40 -7 23 -13 24 -17
24 -117 0 -98 1 -105 26 -130 l26 -26 39 39 c43 42 48 54 21 54 -36 0 -42 21
-42 135 -1 93 -4 114 -19 133 -11 12 -22 22 -26 22 -3 0 -28 -21 -55 -46z"/>
<path d="M3663 7145 l-33 -33 36 -27 37 -28 32 39 33 39 -29 12 c-16 7 -29 17
-29 23 0 16 -13 10 -47 -25z"/>
<path d="M3460 7100 c-7 -17 -30 -55 -51 -86 -44 -62 -45 -66 -24 -84 11 -9
15 -34 15 -97 0 -103 15 -145 61 -163 29 -13 34 -12 43 5 6 10 26 38 44 62 39
52 40 61 6 38 -54 -35 -94 22 -82 121 3 26 8 30 43 34 27 3 40 10 40 20 0 10
-13 17 -40 20 -45 6 -45 7 -32 108 7 58 -4 68 -23 22z"/>
<path d="M2749 7042 c-24 -16 -63 -49 -85 -75 -105 -119 -79 -255 65 -348 l44
-28 44 66 c23 36 43 70 43 75 0 5 -13 1 -29 -8 -25 -15 -36 -16 -69 -6 -21 7
-46 20 -55 30 -16 17 -12 22 75 93 50 41 96 77 101 81 6 4 0 18 -15 37 -14 16
-34 48 -44 70 -11 22 -21 41 -25 41 -3 0 -25 -13 -50 -28z m20 -103 c36 -59
36 -59 -42 -116 -47 -35 -50 -36 -63 -18 -8 10 -14 40 -14 65 0 40 5 52 37 83
20 21 39 37 43 37 4 0 21 -23 39 -51z"/>
<path d="M4014 7027 c-69 -47 -82 -74 -66 -132 11 -42 10 -48 -9 -74 -41 -55
-31 -169 15 -187 7 -3 40 11 72 30 32 20 65 36 72 36 7 0 31 -14 52 -31 l39
-31 28 20 c15 11 37 30 48 42 l20 23 -22 -7 c-12 -4 -31 -2 -42 3 -16 9 -20
27 -26 132 l-7 121 -42 44 c-24 24 -52 44 -63 44 -12 0 -43 -15 -69 -33z m32
-58 c43 -26 55 -49 52 -94 -2 -30 -6 -35 -28 -35 -36 0 -88 35 -96 64 -5 22
18 86 33 86 3 0 21 -9 39 -21z m20 -159 c23 0 25 -3 22 -42 -3 -38 -6 -43 -38
-51 -31 -8 -37 -6 -57 18 -40 46 -24 103 24 84 13 -5 36 -9 49 -9z"/>
<path d="M2983 7002 l-42 -37 25 -35 c23 -32 24 -43 24 -167 0 -133 0 -133 25
-139 13 -3 29 -4 35 -2 6 2 12 57 14 146 4 163 12 184 63 166 36 -12 45 -56
37 -189 -4 -78 -2 -104 9 -119 13 -18 16 -17 65 20 55 42 62 54 33 54 -16 0
-19 11 -24 83 -4 45 -7 102 -7 125 0 49 -24 107 -47 116 -8 4 -32 -9 -57 -29
-24 -19 -48 -35 -54 -35 -7 0 -21 18 -32 40 -11 22 -21 40 -23 40 -1 0 -21
-17 -44 -38z"/>
<path d="M3680 6994 c-50 -47 -63 -68 -35 -58 9 4 29 1 45 -6 l30 -12 0 -100
c0 -92 2 -101 25 -123 13 -14 28 -25 34 -25 5 0 24 18 41 40 23 29 27 40 16
40 -24 0 -33 29 -35 124 -2 76 -6 95 -28 128 -14 21 -30 38 -35 38 -5 0 -31
-21 -58 -46z"/>
<path d="M5441 8336 c-32 -34 -26 -87 11 -100 22 -8 32 -6 48 9 28 25 25 56
-8 88 l-28 27 -23 -24z"/>
<path d="M5153 8283 c-28 -5 -30 -23 -3 -23 32 0 53 -42 45 -92 -12 -68 -66
-211 -77 -200 -11 11 -88 188 -88 202 0 5 14 16 30 25 59 31 45 36 -138 55
-128 13 -152 13 -152 0 0 -5 15 -10 34 -10 18 0 45 -9 59 -20 31 -25 109 -176
173 -338 58 -145 42 -160 140 133 68 201 97 255 138 255 9 0 16 5 16 10 0 10
-131 12 -177 3z"/>
<path d="M5801 8227 c-22 -36 -107 -120 -131 -130 -12 -4 -9 -11 13 -29 24
-21 27 -30 27 -86 0 -145 41 -282 85 -282 14 0 85 95 85 114 0 4 -9 6 -20 3
-36 -9 -49 27 -52 143 l-3 105 90 10 c69 8 90 14 90 25 0 12 -17 16 -82 18
-77 3 -83 4 -89 26 -3 13 0 42 6 66 15 54 8 60 -19 17z"/>
<path d="M5358 8119 c-29 -28 -45 -48 -35 -45 10 3 36 -3 58 -14 l39 -20 0
-108 c0 -98 2 -110 25 -145 21 -30 32 -37 59 -37 26 0 39 8 64 39 18 22 32 42
32 44 0 3 -12 8 -27 12 -16 3 -38 16 -50 27 -21 20 -23 30 -23 132 0 106 -1
111 -27 138 -15 15 -35 28 -44 28 -10 0 -42 -23 -71 -51z"/>
<path d="M6093 8017 c-29 -30 -53 -59 -53 -65 0 -6 10 -20 21 -31 l21 -20 -21
-27 c-35 -45 -45 -100 -27 -148 9 -23 25 -52 35 -65 l19 -25 48 31 c76 48 90
49 109 14 8 -17 21 -31 28 -31 7 0 30 18 51 39 l39 40 -31 36 -32 35 7 109 6
108 -45 27 c-27 16 -60 26 -83 26 -33 0 -46 -8 -92 -53z m77 -18 c49 -29 60
-47 60 -97 0 -40 -2 -43 -22 -37 -46 14 -138 70 -138 84 0 14 48 71 59 71 3 0
22 -9 41 -21z m18 -144 c42 -17 42 -17 42 -69 0 -51 -1 -52 -37 -65 -34 -13
-37 -12 -55 10 -29 38 -41 89 -29 123 7 16 17 26 24 23 6 -3 31 -13 55 -22z"/>
<path d="M5152 7658 c-7 -7 -47 -12 -99 -12 -117 -2 -189 -25 -254 -84 -66
-59 -83 -93 -82 -169 1 -88 24 -129 98 -173 56 -33 65 -35 150 -35 49 0 111 4
138 9 40 7 47 6 47 -8 0 -9 5 -16 10 -16 6 0 10 35 10 85 0 50 -4 85 -10 85
-5 0 -10 -9 -10 -20 0 -10 -14 -35 -31 -55 -64 -72 -169 -67 -246 13 -46 47
-63 86 -45 104 8 8 53 7 160 -5 83 -9 157 -20 166 -23 14 -5 16 2 16 51 0 50
-2 56 -17 50 -46 -18 -179 -36 -249 -33 l-79 3 -3 36 c-8 97 149 173 254 123
39 -19 74 -62 74 -93 0 -12 5 -21 10 -21 6 0 10 40 10 100 0 55 -1 100 -3 100
-2 0 -8 -5 -15 -12z"/>
<path d="M5510 7589 c-43 -37 -46 -38 -60 -20 -8 10 -27 26 -42 35 -26 17 -27
17 -107 -39 -85 -59 -103 -94 -25 -49 l44 26 34 -34 c60 -60 56 -176 -8 -271
-14 -20 -21 -37 -16 -37 15 0 68 50 91 86 l21 35 55 -52 55 -52 49 49 c27 26
49 52 49 56 0 5 -12 13 -26 18 -75 29 -144 100 -144 147 0 37 14 45 53 28 50
-21 89 -19 121 6 l27 22 -43 24 c-24 13 -52 33 -63 43 -20 18 -21 17 -65 -21z"/>
<path d="M5865 7529 c-108 -67 -135 -108 -135 -202 0 -60 3 -69 39 -117 57
-75 102 -100 145 -78 27 13 126 109 126 122 0 5 -8 2 -18 -7 -28 -26 -111 -22
-152 6 -52 35 -75 73 -75 123 0 36 6 49 32 76 l33 32 29 -28 c26 -25 35 -28
72 -23 23 3 45 9 50 14 5 5 -14 31 -44 61 l-53 52 -49 -31z"/>
<path d="M6214 7491 c-143 -83 -178 -259 -72 -368 17 -18 46 -38 65 -44 31
-10 35 -8 93 43 105 92 134 193 85 293 -25 51 -81 105 -110 105 -5 0 -33 -13
-61 -29z m32 -70 c55 -34 84 -81 83 -137 0 -52 -27 -135 -45 -141 -17 -5 -100
72 -118 111 -34 73 -10 177 44 185 3 1 19 -8 36 -18z"/>
<path d="M6460 7336 c0 -14 29 -26 68 -26 12 0 22 6 22 14 0 14 -29 26 -67 26
-13 0 -23 -6 -23 -14z"/>
<path d="M6460 7266 c0 -12 40 -26 76 -26 19 0 18 26 -2 34 -29 11 -74 7 -74
-8z"/>
<path d="M4747 7133 c-2 -4 -2 -115 1 -246 l5 -237 30 -30 c17 -17 34 -30 37
-30 3 0 28 25 54 55 l47 55 -28 0 c-51 0 -53 8 -53 227 l0 203 -29 0 c-16 0
-36 3 -44 6 -8 3 -17 2 -20 -3z"/>
<path d="M5481 7079 c-18 -22 -51 -52 -73 -66 l-39 -26 25 -21 c24 -20 25 -25
28 -159 3 -132 4 -140 27 -158 37 -30 72 -24 114 19 41 42 51 71 18 50 -15 -9
-25 -9 -45 0 -26 11 -26 13 -26 121 l0 110 38 3 c49 4 51 31 2 38 -32 5 -35 8
-35 40 0 19 4 47 8 63 10 38 -2 34 -42 -14z"/>
<path d="M5125 7031 c-34 -20 -82 -73 -97 -107 -6 -14 -6 -34 1 -58 9 -33 7
-42 -14 -75 -35 -52 -41 -93 -20 -146 9 -25 23 -45 30 -45 7 0 33 16 57 36 67
57 80 60 113 30 15 -14 33 -26 39 -26 11 0 106 103 106 115 0 3 -9 3 -20 0
-13 -4 -31 0 -45 9 -24 16 -25 21 -25 119 l0 103 -33 32 c-38 37 -51 39 -92
13z m24 -85 c18 -19 22 -33 19 -72 -3 -44 -6 -49 -28 -52 -14 -1 -40 7 -57 18
-27 16 -33 26 -33 53 0 70 55 100 99 53z m21 -181 c0 -28 -5 -37 -30 -50 -16
-8 -36 -15 -45 -15 -24 0 -38 40 -26 73 9 24 16 27 56 27 45 0 45 0 45 -35z"/>
<path d="M5678 6946 c-43 -38 -46 -46 -19 -46 38 0 51 -37 51 -145 0 -99 1
-102 29 -129 28 -27 31 -27 68 -16 21 7 55 21 75 31 44 23 48 23 48 6 0 -17
42 -57 60 -57 8 0 24 9 36 21 21 20 22 22 7 57 -12 29 -14 59 -10 133 l6 97
-35 41 c-20 22 -41 41 -48 41 -6 0 -30 -18 -51 -40 -35 -36 -37 -40 -17 -40
43 0 62 -33 62 -108 0 -92 -11 -106 -80 -100 -73 7 -78 17 -72 134 5 94 4 95
-23 125 -16 16 -34 29 -39 29 -6 -1 -28 -16 -48 -34z"/>
<path d="M6153 6887 l-53 -42 33 -8 c63 -17 67 -26 67 -173 0 -83 4 -135 11
-139 6 -4 26 -4 45 -1 l34 7 0 139 c0 132 1 139 21 145 16 5 30 -2 58 -29 l37
-36 49 45 c42 36 46 44 29 45 -12 0 -27 7 -34 15 -7 9 -25 24 -40 35 -26 18
-26 18 -70 -11 l-44 -29 -41 40 c-22 22 -43 40 -45 39 -3 0 -29 -19 -57 -42z"/>
<path d="M4445 5825 c-53 -20 -83 -51 -67 -67 9 -9 20 -8 50 4 l39 15 -5 -43
c-3 -28 0 -50 8 -59 18 -22 8 -27 -29 -14 -45 16 -50 4 -10 -20 60 -37 118
-29 241 31 101 50 126 68 94 68 -8 0 -53 20 -100 46 -99 52 -159 62 -221 39z
m185 -60 c27 -13 51 -29 55 -34 3 -6 -22 -24 -56 -41 -57 -29 -60 -30 -45 -8
20 28 20 57 0 86 -19 28 -14 28 46 -3z"/>
</g>
</svg>
