<?xml version="1.0" standalone="no"?>
<!DOCTYPE svg PUBLIC "-//W3C//DTD SVG 20010904//EN"
 "http://www.w3.org/TR/2001/REC-SVG-20010904/DTD/svg10.dtd">
<svg version="1.0" xmlns="http://www.w3.org/2000/svg"
 width="1143.000000pt" height="1143.000000pt" viewBox="0 0 1143.000000 1143.000000"
 preserveAspectRatio="xMidYMid meet">
<metadata>
Created by potrace 1.14, written by Peter Selinger 2001-2017
</metadata>
<g transform="translate(0.000000,1143.000000) scale(0.100000,-0.100000)"
fill="#000000" stroke="none">
<path d="M4708 11425 c-2 -2 -127 -6 -278 -9 -379 -10 -719 -21 -895 -31 -33
-2 -132 -6 -220 -10 -88 -3 -182 -8 -210 -10 -27 -2 -102 -7 -165 -10 -63 -3
-142 -8 -175 -10 -33 -2 -100 -7 -150 -10 -49 -3 -115 -8 -145 -10 -30 -2 -93
-7 -140 -10 -47 -3 -107 -8 -135 -10 -27 -2 -81 -7 -120 -10 -38 -3 -92 -7
-120 -10 -27 -3 -81 -7 -120 -10 -66 -5 -136 -11 -215 -20 -19 -3 -64 -7 -100
-10 -36 -4 -81 -8 -100 -10 -19 -3 -62 -7 -95 -11 -33 -4 -67 -8 -75 -10 -8
-1 -21 -3 -28 -3 -10 -1 -12 -641 -9 -3243 1 -1784 5 -3256 9 -3273 3 -16 9
-57 13 -90 4 -33 9 -70 10 -83 3 -21 20 -130 31 -192 2 -14 8 -52 14 -85 13
-82 18 -104 29 -150 9 -34 33 -140 36 -155 1 -3 4 -18 8 -35 4 -16 9 -39 12
-50 12 -60 80 -288 120 -407 255 -764 672 -1435 1224 -1972 51 -50 101 -98
110 -107 27 -27 173 -152 226 -194 28 -22 52 -43 55 -46 16 -18 225 -169 340
-246 345 -230 679 -405 1068 -559 92 -36 176 -69 187 -74 107 -46 608 -186
770 -215 157 -29 214 -35 249 -29 23 3 52 8 66 11 14 2 32 6 40 8 8 2 30 7 47
10 18 3 63 12 100 21 38 9 79 18 93 20 14 3 68 16 120 30 1217 321 2216 942
2894 1799 127 160 123 155 235 323 220 329 405 700 548 1102 51 145 145 454
157 517 3 15 12 55 20 88 13 55 58 276 70 350 3 17 8 41 10 55 5 23 9 48 22
140 3 19 7 46 9 60 2 14 7 50 10 80 4 30 9 69 12 85 3 17 8 1487 9 3268 3
3047 2 3237 -14 3238 -9 1 -26 3 -37 4 -11 1 -54 6 -95 9 -41 4 -91 9 -110 11
-19 2 -72 6 -118 10 -45 3 -97 8 -115 10 -18 2 -70 6 -117 10 -47 3 -101 8
-120 10 -19 3 -75 7 -124 10 -49 3 -112 7 -140 10 -28 2 -89 7 -136 10 -47 3
-105 8 -130 10 -25 2 -92 6 -150 10 -58 4 -125 8 -150 10 -25 2 -99 7 -165 10
-66 4 -142 8 -170 10 -27 2 -117 6 -200 10 -82 4 -172 8 -200 10 -44 3 -148 8
-465 20 -41 2 -174 6 -295 10 -121 4 -269 9 -330 11 -124 5 -2092 13 -2097 9z
m317 -589 c62 -7 173 -26 187 -31 7 -2 26 -7 42 -9 56 -10 213 -67 296 -109
l85 -42 1 -1345 c0 -740 -1 -1348 -3 -1352 -2 -3 -29 6 -61 22 -81 39 -231 94
-337 123 -187 52 -258 62 -435 61 -138 0 -171 -3 -285 -24 -27 -5 -61 -11 -75
-14 -45 -8 -550 -115 -570 -121 -20 -6 -343 -62 -400 -69 -112 -14 -204 -20
-325 -20 l-130 -1 0 1380 0 1380 35 -4 c185 -19 315 -26 515 -26 290 0 341 7
540 78 151 54 233 76 390 102 167 29 396 38 530 21z m1797 0 c75 -9 181 -33
239 -55 67 -25 282 -87 329 -95 19 -3 46 -8 60 -10 106 -20 159 -28 180 -31
164 -16 251 -20 460 -20 135 0 282 4 328 8 66 7 82 6 83 -5 4 -78 1 -2717 -4
-2725 -9 -15 -246 -8 -412 12 -64 8 -248 34 -275 40 -14 2 -41 7 -60 9 -33 5
-87 14 -202 36 -83 15 -105 19 -238 45 -69 13 -136 27 -150 29 -14 3 -34 7
-45 9 -11 3 -40 8 -65 12 -25 4 -54 9 -65 12 -20 4 -134 25 -217 40 -54 9
-325 10 -399 0 -53 -7 -126 -20 -176 -32 -13 -3 -33 -7 -45 -10 -91 -19 -267
-92 -353 -145 l-31 -19 0 1344 0 1344 35 17 c116 55 422 146 571 169 25 4 54
9 65 11 11 3 58 7 105 10 47 4 86 7 87 8 4 4 148 -3 195 -8z m-4545 -687 c154
-75 205 -288 104 -440 -55 -81 -142 -120 -254 -114 -77 4 -139 29 -185 76
-152 151 -88 431 113 492 66 20 164 14 222 -14z m6494 -133 c84 -19 206 -13
314 17 204 56 360 -20 424 -206 11 -31 18 -57 15 -57 -3 0 -17 6 -32 14 -38
20 -118 27 -172 15 -25 -5 -129 -50 -232 -99 -211 -102 -365 -158 -430 -156
l-43 1 -3 262 -2 263 50 -20 c27 -11 77 -26 111 -34z m-5885 -163 l-1 -168
-167 0 -168 -1 -1 38 c0 21 0 76 0 123 0 47 0 105 0 130 l1 45 169 0 169 0 -2
-167z m-617 -873 c90 -40 143 -112 160 -217 21 -135 -35 -254 -150 -314 -56
-29 -171 -35 -242 -12 -61 21 -125 77 -157 139 -21 42 -25 63 -25 139 0 96 17
145 67 197 86 90 232 118 347 68z m6357 -9 c27 -26 126 -39 281 -35 87 2 172
6 188 9 17 3 68 8 115 12 98 6 149 -10 208 -68 54 -53 128 -219 98 -219 -7 0
-16 4 -21 9 -20 18 -112 37 -164 35 -40 -3 -72 -14 -130 -45 -42 -23 -94 -52
-116 -64 -102 -56 -309 -120 -422 -131 l-63 -6 0 256 c0 141 4 256 8 256 4 0
12 -4 18 -9z m-5739 -285 c2 -150 0 -166 -15 -167 -71 -4 -314 -1 -318 4 -4 3
-6 77 -6 164 l0 158 43 5 c24 3 100 4 169 4 l125 -1 2 -167z m2900 -1100 c17
-3 76 -24 130 -47 149 -62 201 -78 256 -82 47 -4 117 10 133 26 33 33 25 -54
-9 -90 -11 -13 -28 -23 -36 -23 -14 -1 -14 -2 0 -10 26 -15 116 -4 154 20 19
12 45 34 59 51 14 16 26 29 29 29 8 0 5 -77 -5 -110 -6 -19 -20 -46 -32 -59
-28 -32 -110 -69 -168 -77 -27 -4 -48 -11 -48 -16 0 -5 4 -7 9 -4 5 3 29 -10
54 -29 36 -27 48 -44 53 -73 14 -84 27 -117 60 -150 30 -30 39 -34 74 -30 45
4 44 5 28 -25 -26 -50 -82 -61 -142 -28 -19 11 -37 17 -40 14 -3 -3 6 -25 20
-50 18 -30 31 -74 40 -141 24 -159 52 -220 126 -267 32 -20 28 -35 -8 -35 -36
0 -62 15 -116 68 -27 26 -48 44 -48 40 0 -3 9 -26 20 -51 12 -26 22 -66 24
-89 5 -81 -46 -287 -74 -296 -14 -5 -60 37 -60 54 0 17 -90 105 -100 99 -9 -5
2 -30 33 -77 28 -41 55 -120 68 -195 11 -71 13 -188 4 -204 -11 -18 -45 12
-75 65 -17 29 -39 61 -50 71 -20 18 -20 17 -20 -11 1 -75 62 -198 135 -269 81
-80 151 -190 178 -281 16 -57 13 -198 -7 -300 -2 -12 -7 -45 -11 -75 -8 -70
-15 -113 -19 -116 -9 -10 -66 66 -100 131 -39 76 -63 91 -52 32 3 -17 8 -41
10 -54 9 -42 69 -152 107 -196 47 -54 72 -137 73 -248 1 -105 -12 -116 -55
-43 -39 67 -85 122 -93 114 -3 -3 3 -28 13 -56 28 -76 69 -240 76 -303 10 -86
3 -237 -12 -262 -2 -5 -6 -17 -8 -29 -2 -11 -15 -48 -28 -82 -13 -34 -27 -71
-31 -81 -8 -23 -13 -19 -20 14 -2 14 -19 86 -36 160 -40 172 -42 182 -57 234
l-9 28 -32 -33 c-19 -19 -58 -71 -88 -115 -30 -45 -74 -104 -99 -130 l-44 -49
-1 30 c-2 55 -9 114 -20 172 -5 32 -13 72 -15 88 -3 17 -8 38 -11 47 -3 10 -7
30 -10 45 -3 16 -10 46 -16 68 -6 22 -13 47 -14 56 -16 80 -105 299 -123 299
-8 0 -238 -600 -272 -712 -10 -35 -24 -90 -30 -123 -5 -33 -12 -71 -15 -85 -6
-32 -6 -248 0 -275 2 -11 7 -41 10 -66 3 -25 17 -78 30 -117 14 -40 23 -72 21
-72 -6 0 -54 92 -83 160 -29 64 -70 200 -78 250 -3 19 -7 41 -9 48 -7 20 -17
130 -19 202 -5 188 45 351 120 391 24 12 26 18 22 69 -4 57 -25 111 -45 117
-13 5 -19 -13 -28 -77 -7 -48 -29 -103 -49 -119 -19 -16 -75 24 -93 66 -10 26
-13 55 -10 98 9 96 16 117 57 175 45 62 77 126 83 168 6 34 -17 92 -35 92 -7
0 -24 -25 -37 -56 -28 -64 -68 -102 -87 -82 -7 7 -21 44 -33 83 -28 96 -25
248 9 360 37 127 104 247 204 368 29 34 37 50 29 58 -8 8 -32 -3 -88 -40 -108
-72 -109 -72 -102 47 10 175 72 304 184 381 40 27 137 61 175 61 15 0 28 5 28
10 0 6 -9 10 -21 10 -20 0 -79 50 -79 67 0 5 36 14 80 21 152 24 257 79 296
154 17 33 28 138 15 138 -5 0 -20 -17 -35 -39 -65 -94 -182 -141 -234 -95 -19
16 -22 23 -12 24 28 0 80 57 80 87 -1 89 -53 117 -185 99 -60 -8 -108 13 -142
64 -30 43 -29 52 3 40 37 -14 79 -4 170 41 152 75 243 61 350 -53 30 -33 57
-58 59 -56 3 2 6 24 9 49 9 95 -56 169 -182 206 -53 15 -63 23 -77 53 -20 44
-41 68 -85 102 -39 29 -128 58 -175 56 -49 -1 -53 1 -60 30 -9 37 -50 89 -83
106 -64 33 -158 -8 -183 -79 -7 -19 -16 -35 -20 -35 -12 0 -70 71 -81 99 -15
38 -10 108 12 150 28 55 87 118 137 148 l46 27 18 -22 c10 -12 28 -49 40 -81
24 -61 57 -91 92 -84 22 6 22 6 -10 72 -33 71 -39 127 -13 141 30 16 57 12 88
-15 39 -32 48 -32 68 6 52 101 186 151 331 125z m-1772 -171 c88 -18 159 -88
201 -200 29 -77 39 -284 19 -390 -4 -23 0 -37 16 -54 29 -31 102 -63 150 -65
49 -1 50 -16 5 -77 -60 -81 -117 -93 -246 -50 -59 20 -84 15 -95 -19 -3 -10
-29 -36 -56 -56 -76 -55 -99 -96 -99 -171 0 -56 3 -66 32 -99 26 -29 33 -47
36 -93 3 -47 1 -59 -17 -75 -25 -23 -29 -92 -6 -135 28 -55 89 -58 259 -15
202 52 235 51 320 -4 76 -49 127 -64 141 -41 13 19 6 121 -9 144 -8 12 -46 42
-83 65 -38 23 -80 57 -92 76 -39 56 -21 160 55 319 24 52 51 92 57 84 2 -2 10
-26 17 -52 16 -59 75 -152 121 -191 19 -15 79 -58 134 -96 55 -37 113 -80 129
-96 44 -44 85 -113 103 -174 32 -109 32 -142 -2 -259 -32 -110 -31 -181 4
-249 l21 -42 -25 -37 c-26 -40 -59 -128 -76 -203 -45 -199 -23 -382 60 -505
l31 -45 -16 -68 c-32 -137 -2 -273 80 -354 l38 -38 -17 -67 c-26 -103 -17
-261 21 -385 4 -13 1 -16 -11 -12 -16 7 -26 26 -91 179 -86 203 -194 336 -332
408 -87 46 -234 85 -311 83 -56 -1 -56 -1 -59 -34 -4 -38 27 -104 71 -154 90
-100 113 -159 116 -310 1 -64 -2 -115 -9 -128 -10 -19 -18 -13 -120 89 -59 60
-115 122 -123 137 -15 30 -44 132 -49 172 -3 21 -6 20 -49 -20 -109 -103 -172
-214 -196 -343 -4 -22 -7 -85 -6 -140 0 -79 -2 -94 -10 -70 -5 17 -34 92 -64
168 -30 75 -51 143 -47 150 8 12 104 138 114 147 3 3 30 39 62 80 31 41 67 88
81 104 70 81 281 486 263 504 -17 16 -151 -149 -385 -473 -28 -38 -57 -79 -65
-90 -8 -11 -40 -56 -70 -99 l-55 -80 -17 40 c-33 82 -86 190 -100 205 -13 14
-7 25 47 95 104 135 159 222 221 353 71 150 83 177 96 216 5 17 13 38 17 48
13 31 -9 18 -35 -21 -14 -20 -27 -39 -31 -42 -7 -7 -94 -140 -214 -330 -111
-175 -155 -240 -165 -240 -4 0 -26 18 -51 40 -40 37 -76 57 -84 48 -2 -1 -6
-23 -10 -48 -3 -25 -11 -60 -17 -78 -5 -19 -11 -63 -12 -98 -3 -70 2 -62 -116
-187 -60 -64 -221 -207 -232 -207 -8 0 -18 74 -24 179 l-5 96 38 40 c96 99
270 306 311 370 134 207 246 407 240 427 -8 23 -158 -151 -438 -510 -91 -116
-168 -211 -171 -211 -4 -1 -12 12 -18 28 -7 16 -36 57 -65 92 l-53 64 51 70
c114 155 231 342 287 461 111 233 130 303 59 218 -46 -56 -343 -500 -395 -591
-6 -10 -24 -38 -40 -63 -16 -25 -30 -46 -31 -48 -1 -2 -14 0 -29 4 l-28 7 6
81 c4 45 18 142 32 216 43 224 47 261 27 268 -23 7 -103 -218 -118 -331 -2
-16 -6 -36 -8 -46 -3 -9 -8 -38 -11 -66 -14 -132 -14 -133 -48 -133 -33 0
-135 -30 -142 -42 -14 -23 7 -69 40 -89 48 -28 77 -91 78 -166 0 -57 -3 -87
-22 -218 -18 -129 0 -203 75 -307 43 -59 38 -78 -19 -75 -47 3 -92 -13 -124
-43 l-21 -21 -8 27 c-4 15 -9 36 -11 47 -2 11 -10 52 -18 90 -12 60 -21 116
-30 185 -4 34 -16 148 -20 200 -6 69 -6 355 0 475 7 140 16 283 19 302 2 10 7
45 10 78 4 33 11 87 17 120 5 33 12 98 15 145 6 77 5 84 -9 70 -17 -16 -87
-174 -192 -430 -37 -91 -76 -184 -86 -207 -10 -24 -19 -45 -19 -48 0 -3 -9
-27 -21 -53 -12 -26 -25 -56 -29 -67 -39 -99 -123 -304 -190 -465 -45 -107
-87 -207 -93 -222 -16 -41 -35 -34 -59 19 -18 41 -20 59 -15 152 7 115 10 140
27 216 6 28 13 57 15 65 49 229 217 649 366 913 58 102 158 257 190 290 24 26
35 65 22 78 -14 14 -50 -17 -203 -174 -113 -116 -206 -201 -334 -304 -41 -33
-171 -97 -222 -109 -49 -11 -141 -10 -154 2 -5 6 157 165 400 394 212 199 461
447 495 493 33 45 26 59 -18 33 -155 -91 -344 -173 -433 -190 -103 -19 -138
-22 -209 -21 -82 2 -191 20 -199 34 -3 4 73 49 167 101 538 292 807 498 863
660 8 23 12 45 9 49 -2 5 -51 -15 -107 -43 -171 -86 -287 -128 -438 -160 -97
-20 -275 -15 -344 9 l-49 18 53 31 c91 54 473 287 510 311 19 12 154 98 300
190 274 173 288 182 480 307 l116 75 69 0 c59 -1 76 3 107 24 l37 25 -92 -2
c-155 -4 -214 30 -204 118 3 26 14 64 25 84 18 36 19 36 25 13 9 -35 59 -79
100 -89 36 -8 144 -5 182 4 11 3 38 10 60 15 22 6 99 31 170 57 184 65 265 78
360 59z m4025 -33 c58 -16 157 -49 220 -75 137 -55 182 -66 261 -63 63 2 70
-5 41 -40 -23 -29 -48 -41 -106 -48 -59 -8 -67 -12 -60 -31 3 -7 36 -21 72
-29 145 -33 303 -104 417 -188 71 -52 79 -74 25 -71 -32 1 -31 -1 72 -105 57
-59 127 -134 155 -167 49 -58 97 -106 383 -384 126 -122 133 -131 105 -131
-71 0 -261 120 -459 290 -80 68 -203 179 -215 193 -18 22 -30 22 -26 0 2 -10
4 -21 4 -24 2 -12 101 -122 261 -289 314 -329 420 -452 552 -645 68 -99 128
-199 128 -213 0 -13 -70 2 -129 29 -24 10 -47 19 -52 19 -12 0 -175 80 -224
109 -104 63 -199 171 -321 364 -206 328 -275 417 -321 417 -13 0 -23 -3 -23
-6 0 -9 38 -73 234 -397 103 -170 197 -328 210 -350 13 -23 49 -87 81 -142
140 -244 226 -483 252 -695 17 -135 8 -701 -12 -810 -3 -14 -6 -36 -9 -50 -15
-90 -52 -170 -80 -170 -11 0 -48 114 -71 219 -2 9 -18 70 -35 136 -18 66 -33
127 -35 135 -2 8 -17 74 -35 145 -17 72 -34 141 -36 155 -4 20 -42 174 -59
240 -2 8 -11 47 -20 85 -21 92 -114 424 -125 450 -5 11 -20 53 -34 93 -34 100
-91 231 -137 314 -49 88 -132 205 -136 191 -2 -5 24 -82 58 -169 137 -354 238
-666 275 -854 3 -14 9 -41 14 -60 5 -19 11 -53 14 -75 4 -22 11 -62 16 -90 12
-63 32 -259 32 -315 0 -21 -3 -30 -13 -30 -18 0 -171 -63 -229 -94 -78 -41
-137 -83 -155 -108 -14 -21 -15 -10 -16 132 0 85 -2 164 -4 174 -2 11 -7 54
-10 95 -3 42 -8 85 -10 96 -3 11 -7 36 -10 55 -2 19 -6 44 -9 55 -2 11 -7 40
-11 65 -32 203 -158 602 -184 586 -9 -6 -7 -89 4 -176 3 -25 8 -63 10 -85 6
-44 16 -111 20 -136 2 -9 6 -40 10 -69 4 -29 8 -60 10 -69 1 -9 6 -41 10 -71
5 -30 9 -62 11 -70 1 -8 5 -44 8 -79 4 -35 9 -68 12 -72 3 -5 2 -9 -3 -8 -4 0
-30 30 -58 66 -108 141 -331 406 -410 486 -90 91 -99 74 -29 -59 141 -271 250
-415 433 -575 l73 -64 -5 -125 c-5 -104 -27 -233 -41 -248 -11 -11 -118 110
-467 528 -85 102 -190 221 -233 265 -69 70 -80 77 -83 58 -4 -19 39 -115 94
-213 11 -19 35 -62 53 -95 77 -140 160 -232 515 -569 l90 -85 -29 -56 c-32
-62 -104 -161 -123 -169 -6 -3 -72 43 -147 101 -122 94 -136 108 -141 141 -22
143 -55 178 -137 145 -37 -15 -39 -15 -59 8 -11 12 -51 57 -89 98 -261 287
-338 328 -228 121 68 -126 142 -222 217 -281 l34 -27 -30 -48 c-34 -57 -65
-123 -82 -176 -7 -21 -16 -38 -20 -38 -5 0 -55 46 -113 103 -193 189 -238 223
-238 182 0 -9 15 -46 34 -83 39 -78 103 -145 217 -228 43 -32 79 -63 79 -69 0
-16 -50 -167 -65 -195 -15 -28 -96 -107 -195 -190 -36 -30 -67 -57 -70 -60 -6
-6 -167 -139 -192 -159 -14 -10 -12 2 11 57 42 102 103 202 163 268 52 56 164
138 226 163 39 16 41 41 10 88 -39 56 -71 67 -184 60 -55 -3 -111 -9 -126 -12
-27 -5 -28 -4 -28 37 0 24 -7 77 -15 118 -42 207 -41 205 -51 315 -10 101 -9
100 -30 97 -43 -8 -175 -114 -210 -167 -7 -11 -15 -45 -19 -75 -3 -30 -8 -74
-11 -97 -4 -24 -6 -45 -5 -48 3 -16 -47 -128 -79 -175 -31 -48 -80 -141 -80
-154 0 -3 -5 -17 -11 -33 l-11 -28 -15 35 c-10 23 -18 85 -22 180 -8 152 -10
161 -67 241 -59 81 -101 190 -118 304 -17 112 -17 112 6 141 50 62 61 99 61
209 0 56 -7 104 -22 155 -21 67 -22 88 -17 195 3 66 8 131 10 145 27 148 33
298 15 365 -25 94 -77 176 -162 257 -39 36 -39 37 -26 75 14 41 14 42 23 123
10 82 8 80 68 59 29 -10 64 -15 78 -12 30 7 66 30 74 46 3 7 21 50 39 97 31
76 41 90 93 131 102 79 119 138 70 244 -14 32 -26 59 -26 61 0 7 111 -46 142
-67 39 -28 67 -90 62 -139 -4 -38 -38 -135 -54 -155 -4 -5 -11 -26 -15 -47
-10 -50 14 -62 109 -54 115 9 176 34 234 95 45 47 58 74 71 146 16 84 51 150
116 218 30 31 56 67 57 80 4 64 -13 89 -81 119 l-44 18 7 67 7 67 -21 -24
c-53 -63 -138 -143 -164 -157 -38 -20 -125 -12 -188 16 -54 24 -126 23 -177
-4 -36 -18 -42 -11 -27 35 8 25 21 40 46 52 19 9 74 35 121 57 140 66 192 145
141 212 -10 13 -17 30 -16 37 1 6 2 25 3 41 1 36 67 136 134 202 84 83 155
109 229 83 36 -12 40 -11 95 22 137 82 276 93 483 36z m-3233 -339 c4 -52 33
-95 83 -122 42 -24 52 -25 185 -22 310 7 344 3 411 -38 39 -24 101 -101 82
-101 -8 0 -18 3 -22 7 -19 19 -97 32 -171 28 -86 -4 -161 -13 -184 -21 -8 -2
-30 -7 -50 -10 -20 -3 -54 -9 -76 -13 -134 -25 -246 -6 -305 52 -59 57 -73
114 -42 178 18 40 74 110 81 103 3 -2 6 -21 8 -41z m956 -2711 c22 -67 34
-109 42 -147 36 -160 39 -279 13 -390 -21 -86 -26 -207 -14 -295 4 -30 9 -70
11 -88 4 -38 15 -56 16 -26 0 10 2 26 4 34 1 8 5 31 9 50 23 143 103 296 210
404 69 71 80 78 86 61 7 -20 56 -190 66 -230 34 -140 38 -283 9 -370 -19 -55
-76 -168 -87 -173 -5 -2 -8 -8 -8 -14 0 -5 -20 -41 -45 -79 -25 -38 -45 -73
-45 -78 0 -5 -6 -14 -13 -20 -19 -15 -36 -77 -42 -152 -7 -88 -13 -229 -10
-229 2 0 20 51 40 113 54 164 91 242 154 332 80 113 107 162 135 246 22 66 32
111 51 244 16 106 56 203 117 284 l42 55 8 -34 c5 -19 22 -62 39 -95 32 -65
40 -142 24 -235 -10 -62 -59 -186 -107 -272 -22 -40 -56 -102 -76 -137 l-35
-63 34 7 c49 11 84 30 124 70 41 42 61 77 90 164 l22 65 20 -55 c45 -120 37
-182 -31 -228 -74 -52 -128 -113 -159 -179 -25 -54 -30 -76 -29 -135 1 -38 4
-72 7 -75 3 -3 12 4 21 17 9 12 23 29 33 39 9 9 45 52 80 94 134 166 193 301
190 433 -2 80 15 125 101 265 37 61 77 151 86 193 2 10 5 26 8 35 5 18 10 47
21 122 4 24 13 57 21 73 16 29 82 97 96 97 4 0 7 -21 7 -47 -1 -27 4 -76 10
-111 42 -225 37 -324 -22 -435 -16 -31 -28 -59 -26 -61 2 -3 31 14 64 36 96
64 160 90 228 93 69 3 97 -3 97 -18 0 -6 -3 -8 -6 -5 -8 9 -94 -22 -139 -50
-87 -55 -152 -145 -214 -302 -91 -225 -144 -314 -234 -385 -78 -62 -121 -109
-138 -152 l-16 -40 41 8 c147 27 293 130 466 327 36 43 96 96 139 125 97 64
198 142 235 181 39 42 116 161 116 180 0 9 5 16 10 16 6 0 10 5 10 12 0 6 12
41 26 77 15 36 37 106 50 154 24 87 61 155 123 226 l30 34 11 -27 c27 -73 14
-267 -30 -432 -11 -43 -23 -87 -25 -98 -17 -72 -95 -193 -192 -296 -18 -19
-33 -38 -33 -42 0 -16 241 103 401 198 115 68 242 165 311 237 61 64 116 140
203 281 44 70 100 150 123 177 51 57 172 140 289 198 74 37 166 66 137 44 -20
-16 -116 -147 -126 -172 -11 -29 -14 -44 -22 -120 -4 -30 -14 -80 -22 -110
-16 -55 -74 -181 -97 -211 -7 -8 -17 -25 -24 -37 -21 -38 18 -39 82 -3 66 38
92 44 129 28 l28 -11 -30 -16 c-38 -20 -98 -74 -137 -124 -101 -129 -210 -224
-320 -280 -53 -26 -186 -71 -245 -81 -74 -14 -268 -44 -320 -50 -259 -31 -502
-118 -702 -253 -40 -27 -136 -92 -213 -145 -77 -52 -169 -111 -205 -131 -66
-37 -185 -85 -228 -93 -40 -8 -110 -45 -117 -61 -6 -16 10 -33 32 -33 6 0 44
-18 85 -39 108 -57 170 -74 268 -75 117 0 186 24 420 149 248 131 361 187 366
182 2 -2 -20 -28 -48 -59 -29 -30 -91 -97 -138 -148 -140 -154 -195 -201 -292
-251 -66 -33 -208 -82 -288 -98 -30 -6 -66 -14 -80 -16 -147 -31 -402 -40
-530 -19 -30 5 -89 9 -130 9 -62 -1 -84 -6 -125 -28 -62 -33 -77 -45 -99 -79
l-17 -27 75 6 c97 7 146 -10 229 -84 34 -29 99 -73 145 -95 130 -65 209 -54
312 42 142 131 339 136 497 11 l58 -46 -42 -5 c-59 -9 -99 -40 -183 -147 -41
-52 -93 -112 -116 -133 -83 -76 -181 -108 -317 -104 -77 3 -97 8 -160 38 -40
19 -121 68 -182 108 -149 98 -269 158 -316 158 -45 0 -82 -30 -97 -77 -21 -65
3 -118 118 -258 103 -126 133 -183 133 -252 0 -79 -60 -163 -147 -203 -46 -22
-123 -21 -176 2 -48 21 -149 99 -185 144 -16 20 -42 50 -57 68 -15 17 -25 32
-23 34 2 2 32 -5 67 -15 130 -39 229 -26 254 33 13 30 12 39 -5 86 -10 29 -44
95 -74 146 -52 88 -93 205 -81 236 2 6 0 17 -5 25 -11 18 -38 2 -103 -60 -287
-275 -454 -376 -621 -377 -104 0 -157 33 -344 218 -221 217 -376 344 -516 421
-48 26 -48 26 -20 32 15 3 95 4 178 2 185 -3 306 -28 420 -84 89 -44 139 -88
196 -172 46 -68 98 -113 157 -136 80 -30 177 10 272 114 107 116 209 245 210
265 1 20 -190 92 -305 114 -79 15 -229 20 -312 10 -49 -6 -162 -35 -186 -48
-17 -9 -17 -7 -6 13 23 44 185 196 244 231 144 83 290 78 429 -14 54 -35 150
-129 174 -170 24 -40 35 -34 30 16 -10 96 -101 226 -206 293 -102 65 -213 93
-352 89 -52 -2 -102 -6 -110 -8 -97 -28 -150 -50 -298 -122 -256 -126 -316
-143 -414 -111 -181 59 -462 266 -614 450 -44 53 -106 148 -117 178 -8 21 -12
23 88 -43 204 -134 426 -209 601 -204 49 1 96 4 104 6 45 12 101 34 146 59
101 57 206 82 344 83 156 0 284 -31 530 -129 76 -30 144 -55 151 -55 8 0 -2
14 -21 31 -19 17 -46 40 -60 52 -168 146 -325 220 -525 245 -120 15 -316 4
-435 -24 -14 -3 -38 -8 -55 -11 -16 -3 -59 -16 -94 -30 -104 -42 -153 -51
-209 -42 -65 10 -105 29 -216 102 -50 32 -109 63 -133 70 -24 6 -43 14 -43 17
0 3 26 24 58 46 162 117 307 145 495 94 39 -10 75 -16 79 -13 13 7 -70 70
-137 103 -59 29 -80 33 -198 45 -32 4 -66 8 -75 10 -9 1 -42 6 -72 10 -30 4
-64 9 -75 11 -11 2 -60 11 -110 19 -203 35 -382 76 -583 135 -150 43 -332 104
-372 125 l-24 13 31 29 c56 52 166 70 288 46 39 -7 78 -18 88 -23 33 -19 17 7
-20 33 -124 85 -232 228 -261 347 -13 54 -12 72 18 275 15 102 -4 199 -47 247
-15 17 -14 18 8 19 77 4 153 -25 195 -75 53 -62 75 -142 89 -326 3 -41 8 -91
11 -110 3 -19 7 -49 9 -67 12 -95 47 -173 105 -231 44 -44 67 -54 55 -24 -38
91 -26 182 33 250 25 29 27 28 43 -10 42 -106 144 -210 264 -270 77 -39 99
-41 122 -15 41 45 42 55 7 121 -18 34 -45 106 -60 161 -26 92 -28 115 -28 295
-1 192 5 256 24 245 16 -10 74 -115 103 -185 14 -36 40 -119 57 -185 34 -132
59 -204 91 -268 29 -57 200 -295 237 -330 29 -28 30 -28 37 -8 14 44 8 145
-18 292 -30 171 -6 276 89 390 l34 40 25 -56 c33 -75 75 -126 134 -165 27 -17
56 -41 65 -54 27 -43 38 -188 22 -318 -7 -60 -6 -72 17 -122 14 -31 44 -73 66
-94 62 -59 279 -200 456 -297 88 -48 197 -111 242 -141 97 -64 220 -177 262
-240 33 -50 42 -47 35 11 -13 108 -91 187 -352 361 -357 236 -463 347 -535
559 -19 55 -21 84 -21 350 -1 339 0 336 -112 449 l-65 65 41 -5 c100 -12 221
-82 317 -183 150 -157 295 -445 362 -720 25 -101 61 -165 142 -251 96 -103
162 -181 204 -240 47 -67 61 -82 50 -55 -14 38 -65 230 -79 300 -23 116 -27
141 -41 270 -11 104 -6 332 9 420 2 11 7 38 11 60 4 22 14 67 22 100 8 33 17
67 18 75 18 78 151 364 166 355 4 -3 19 -40 32 -83z m-2225 -481 c0 -102 6
-147 34 -249 29 -109 23 -113 -56 -34 -75 76 -131 153 -142 196 -6 25 1 35 72
102 44 40 82 74 85 74 4 0 6 -40 7 -89z m4620 -158 c55 -47 85 -73 147 -127
l30 -26 -60 -56 c-98 -92 -93 -90 -164 -52 -67 36 -64 28 -46 110 2 9 6 43 10
75 3 32 7 67 10 78 2 11 4 26 4 33 1 19 9 15 69 -35z m-87 -315 c22 -12 39
-26 39 -32 0 -12 -99 -87 -130 -98 -26 -9 -26 -8 10 69 17 35 30 69 30 74 0
13 8 11 51 -13z m849 -179 c-6 -24 -13 -55 -16 -68 -35 -164 -200 -505 -271
-561 -24 -19 -28 -19 -42 -6 -39 40 -41 236 -3 378 17 61 19 64 74 93 80 42
165 106 218 164 25 27 46 48 48 46 1 -1 -2 -22 -8 -46z m-6190 -5 c36 -17 93
-41 127 -53 71 -26 76 -34 97 -169 16 -100 10 -200 -15 -268 -35 -92 -60 -84
-116 35 -19 42 -48 111 -64 154 -37 101 -109 339 -100 335 3 -2 35 -17 71 -34z"/>
<path d="M4508 10443 c-66 -19 -139 -93 -168 -170 -61 -162 16 -300 192 -346
62 -16 77 -12 161 41 85 55 74 74 -33 58 -68 -10 -135 21 -180 84 l-21 29 72
71 c40 39 90 87 111 106 l39 35 -36 44 c-46 56 -76 66 -137 48z m11 -77 c7
-13 24 -30 37 -37 13 -7 24 -15 24 -18 0 -4 -29 -35 -64 -70 l-64 -64 -10 39
c-6 21 -9 50 -7 64 1 14 3 30 4 37 1 14 50 73 60 73 4 0 13 -11 20 -24z"/>
<path d="M4983 10397 c-49 -18 -136 -85 -162 -124 -31 -48 -22 -97 28 -149
l39 -39 -72 -68 c-68 -64 -70 -68 -52 -82 24 -19 115 -53 152 -58 102 -13 284
79 315 160 18 49 -22 118 -90 153 l-24 12 29 23 c16 13 45 37 64 54 l35 31
-35 31 c-73 63 -153 83 -227 56z m80 -123 l38 -25 -30 -25 c-38 -32 -65 -37
-105 -20 -35 14 -76 60 -76 83 0 8 15 20 32 28 37 15 71 5 141 -41z m57 -244
c24 -45 -46 -103 -107 -89 -37 8 -114 56 -119 74 -2 6 21 29 49 51 l52 41 57
-28 c32 -16 62 -38 68 -49z"/>
<path d="M3905 10336 l-59 -53 35 -7 c66 -12 70 -23 72 -212 l2 -169 53 -1
c47 -2 52 0 53 20 1 11 1 94 0 183 0 152 1 163 20 177 19 13 23 10 59 -27 l38
-42 56 39 c31 21 56 45 56 53 0 9 -6 13 -14 10 -9 -4 -31 12 -56 39 l-41 44
-53 -34 c-30 -19 -58 -31 -62 -27 -5 4 -30 19 -55 34 l-45 26 -59 -53z"/>
<path d="M3720 10346 c0 -28 -24 -34 -80 -19 -71 19 -176 19 -220 0 -47 -20
-124 -96 -152 -149 -18 -34 -22 -59 -21 -120 1 -103 26 -155 96 -201 97 -63
141 -69 277 -36 l85 20 28 -36 c16 -19 33 -35 38 -35 14 0 11 33 -6 58 -13 18
-16 63 -16 277 1 219 -1 255 -14 255 -8 0 -15 -6 -15 -14z m-101 -70 c47 -25
70 -60 82 -122 6 -32 15 -67 20 -76 5 -10 5 -19 0 -23 -5 -2 -9 -20 -9 -39 0
-67 -66 -148 -137 -167 -144 -39 -257 162 -185 329 26 60 55 89 107 107 41 15
81 12 122 -9z"/>
<path d="M5321 10146 c-14 -17 1 -31 46 -41 69 -14 94 22 31 44 -41 15 -63 14
-77 -3z"/>
<path d="M5321 10066 c-15 -18 7 -32 68 -42 37 -6 41 -4 41 14 0 15 -9 22 -32
27 -18 4 -40 9 -49 11 -9 2 -22 -2 -28 -10z"/>
<path d="M4752 9810 c-10 -17 -22 -20 -80 -18 -112 2 -159 -15 -219 -81 -40
-44 -48 -79 -29 -124 16 -40 58 -65 186 -111 41 -15 82 -33 91 -39 23 -18 39
-52 39 -84 -1 -59 -48 -85 -140 -78 -101 7 -153 46 -170 129 -3 18 -13 32 -23
34 -16 3 -18 -5 -16 -85 3 -99 14 -153 32 -153 7 0 17 10 22 23 11 24 7 23
182 16 60 -3 77 0 100 17 41 31 62 64 76 119 24 92 -5 169 -73 200 -36 16 -53
20 -125 31 -52 7 -102 31 -110 52 -8 21 24 63 60 81 59 29 140 5 203 -60 33
-34 34 -33 35 26 1 40 -14 125 -22 125 -3 0 -12 -9 -19 -20z"/>
<path d="M4210 9779 c-31 -61 -96 -139 -137 -165 -47 -29 -47 -29 -6 -54 l28
-16 -4 -116 c-3 -131 9 -189 46 -224 50 -46 72 -43 125 16 45 51 55 81 20 61
-11 -6 -25 -4 -43 6 -32 19 -45 72 -45 182 l1 74 35 4 c19 2 46 5 60 7 14 2
35 4 47 5 16 1 21 7 20 22 -1 19 -6 20 -63 16 -35 -2 -68 -1 -74 3 -16 10 -10
127 8 163 8 16 11 32 6 37 -5 5 -16 -5 -24 -21z"/>
<path d="M5272 9776 c-42 -42 -27 -129 24 -139 30 -5 71 38 70 74 -1 25 -47
90 -63 88 -4 0 -18 -10 -31 -23z"/>
<path d="M3398 9667 c-82 -46 -137 -103 -169 -172 -50 -108 -44 -202 17 -274
40 -46 120 -89 160 -86 16 2 39 3 52 4 12 1 22 6 22 13 0 6 11 26 25 44 33 44
32 50 -12 48 -79 -2 -156 44 -193 115 -24 48 -22 156 3 194 38 58 85 53 141
-13 l26 -32 44 43 45 42 -37 53 c-20 29 -44 53 -52 53 -8 1 -41 -14 -72 -32z"/>
<path d="M3765 9639 c-50 -26 -80 -54 -107 -97 -17 -28 -20 -44 -15 -90 4 -35
12 -61 22 -68 15 -11 14 -14 -7 -36 -38 -37 -49 -55 -54 -87 -7 -41 18 -94 58
-125 l35 -26 36 34 c20 18 50 38 66 44 28 10 32 9 31 -13 -1 -9 30 -64 38 -69
9 -5 132 104 132 118 0 5 -8 6 -19 3 -10 -2 -26 0 -35 5 -15 9 -17 27 -15 161
l3 152 -37 52 c-52 71 -68 76 -132 42z m9 -71 c31 -32 49 -72 52 -118 3 -46 1
-51 -26 -65 -43 -22 -65 -19 -99 16 -44 44 -43 95 3 143 36 39 50 43 70 24z
m56 -267 c0 -67 -1 -69 -27 -74 -20 -4 -39 3 -71 25 -35 24 -43 35 -40 56 3
24 7 27 44 27 23 1 52 8 65 17 13 9 25 17 27 17 1 1 2 -30 2 -68z"/>
<path d="M5009 9608 c-75 -59 -105 -90 -129 -138 -37 -72 -25 -163 31 -234 22
-28 109 -76 140 -76 13 0 109 135 109 154 0 13 -26 5 -42 -13 -14 -16 -23 -18
-47 -11 -83 23 -134 90 -133 173 1 60 26 77 111 77 57 0 71 3 89 23 12 12 18
27 14 33 -6 9 -78 54 -86 54 -2 0 -28 -19 -57 -42z"/>
<path d="M5255 9516 c-38 -35 -66 -68 -62 -72 4 -5 16 -3 25 3 14 8 23 6 44
-11 26 -21 27 -24 29 -151 l3 -130 34 -33 34 -34 32 28 c41 37 76 77 76 87 0
5 -3 6 -8 3 -4 -2 -22 2 -40 10 l-33 13 2 136 c1 133 1 137 -26 175 -15 22
-30 40 -34 40 -3 0 -37 -29 -76 -64z"/>
<path d="M4683 9101 c-7 -11 -26 -27 -43 -37 -16 -10 -30 -21 -30 -25 0 -3 20
-22 45 -42 l46 -35 43 46 43 46 -36 24 c-20 13 -37 28 -39 33 -6 14 -16 10
-29 -10z"/>
<path d="M4380 8993 c-24 -43 -58 -97 -77 -120 l-34 -42 23 -23 c21 -21 23
-33 25 -133 1 -60 6 -123 11 -140 9 -31 63 -75 92 -75 11 0 41 32 74 77 56 78
60 103 10 64 -19 -15 -31 -18 -43 -11 -35 18 -45 42 -49 121 -5 87 -5 87 63
92 32 2 40 6 40 22 0 15 -8 21 -30 23 -72 6 -77 10 -71 50 11 77 19 172 13
172 -3 0 -24 -35 -47 -77z"/>
<path d="M3477 8933 c-235 -158 -234 -401 2 -540 30 -17 46 -22 49 -14 2 6 28
45 58 87 66 92 71 117 16 78 -13 -9 -38 -16 -57 -16 -35 0 -111 36 -119 57 -3
9 126 121 232 201 12 8 6 22 -31 75 -25 36 -49 77 -52 92 -4 15 -12 27 -19 27
-6 0 -42 -21 -79 -47z m8 -73 c4 -11 22 -41 41 -66 28 -36 33 -48 23 -60 -25
-30 -141 -105 -154 -100 -8 3 -19 23 -26 45 -17 57 1 111 53 162 46 45 54 47
63 19z"/>
<path d="M5119 8942 c-53 -34 -92 -70 -106 -97 -11 -22 -8 -73 7 -119 8 -24 6
-33 -15 -58 -53 -63 -55 -168 -2 -225 27 -30 36 -29 99 12 76 50 114 59 141
34 12 -11 37 -29 55 -41 l33 -20 47 43 c55 50 69 69 50 69 -7 0 -19 -4 -27 -9
-18 -12 -49 -2 -55 18 -7 21 -18 158 -19 236 -1 64 -9 78 -85 152 -41 40 -65
41 -123 5z m4 -83 c12 -6 35 -23 50 -38 25 -23 28 -32 26 -83 -2 -46 -6 -58
-18 -58 -23 1 -94 34 -114 54 -21 22 -22 84 -1 114 17 25 26 27 57 11z m27
-208 l45 -6 0 -47 c0 -47 0 -48 -44 -63 l-44 -15 -34 36 c-33 36 -37 54 -18
97 6 14 14 17 29 12 11 -4 41 -10 66 -14z"/>
<path d="M3787 8896 l-57 -52 32 -39 33 -39 3 -165 c2 -91 5 -172 7 -179 3 -9
19 -12 46 -10 l42 3 2 175 c1 96 5 182 9 190 3 9 15 21 27 28 16 11 25 10 49
-4 16 -10 31 -27 34 -38 3 -11 3 -77 0 -146 -6 -167 -6 -160 8 -202 l13 -37
78 60 c75 59 90 85 41 73 -20 -5 -24 -2 -25 17 -10 287 -24 365 -69 389 -17 9
-30 4 -80 -35 -33 -26 -66 -45 -72 -43 -6 2 -23 27 -37 55 l-26 51 -58 -52z"/>
<path d="M4667 8877 c-62 -57 -81 -90 -37 -67 15 8 66 -7 90 -27 2 -2 5 -60 5
-129 l2 -125 34 -35 33 -34 48 47 c50 51 57 63 33 63 -28 0 -40 43 -41 156
l-2 111 -37 51 c-20 29 -42 52 -48 52 -7 0 -43 -28 -80 -63z"/>
<path d="M6914 10592 c-25 -21 -31 -34 -30 -62 3 -74 59 -105 104 -57 33 34
29 77 -10 114 l-33 31 -31 -26z"/>
<path d="M6605 10528 c-86 -10 -102 -15 -88 -29 9 -9 27 -15 54 -18 16 -2 31
-64 26 -103 -6 -45 -43 -164 -73 -233 l-17 -40 -38 80 c-21 44 -48 105 -60
135 l-20 55 26 22 c14 13 32 23 39 23 21 0 27 28 8 34 -9 2 -44 7 -77 11 -33
3 -71 8 -85 10 -30 4 -179 17 -200 18 -32 0 -40 -4 -40 -18 0 -11 12 -15 44
-15 71 0 96 -30 186 -214 72 -150 160 -361 160 -385 0 -20 18 -11 23 12 3 12
28 87 57 167 28 80 54 152 56 160 12 48 58 182 76 222 17 37 30 52 65 68 41
19 57 39 31 41 -7 0 -29 1 -48 2 -19 2 -66 -1 -105 -5z"/>
<path d="M7374 10458 c-24 -46 -120 -144 -155 -158 -36 -16 -37 -40 -1 -61 25
-14 27 -21 29 -85 7 -192 32 -301 81 -356 30 -35 56 -22 101 48 43 69 48 104
12 84 -24 -12 -51 10 -52 43 0 12 -2 31 -5 42 -2 11 -6 66 -10 121 l-7 102 39
6 c22 3 66 9 99 12 105 11 111 13 102 39 -5 12 -25 15 -94 16 -48 1 -94 1
-101 0 -27 -4 -35 85 -11 131 12 22 11 48 -1 48 -5 0 -17 -14 -26 -32z"/>
<path d="M6808 10319 c-70 -63 -85 -87 -44 -68 20 9 31 7 70 -16 45 -26 46
-28 47 -78 3 -232 5 -244 55 -294 16 -16 35 -23 61 -23 34 0 42 6 80 55 45 57
45 58 -2 69 -16 4 -43 19 -58 34 -28 27 -28 28 -27 142 1 63 1 125 1 137 -1
26 -75 103 -99 103 -9 0 -47 -28 -84 -61z"/>
<path d="M7803 10238 c-43 -23 -119 -102 -127 -131 -3 -12 4 -28 19 -43 l24
-24 -35 -67 c-28 -54 -35 -76 -31 -109 4 -47 39 -123 67 -149 18 -16 21 -16
62 13 40 27 111 62 127 62 4 0 15 -16 24 -35 30 -63 42 -59 131 43 20 22 20
23 -18 61 l-38 39 4 142 5 141 -26 18 c-80 56 -134 67 -188 39z m24 -73 c17
-8 42 -26 57 -40 23 -21 26 -32 26 -85 0 -33 -2 -60 -5 -60 -9 0 -159 78 -179
92 -22 17 -17 42 19 81 30 31 40 33 82 12z m25 -187 l58 -23 0 -67 0 -66 -45
-15 -45 -16 -24 32 c-27 36 -47 98 -41 128 9 43 17 60 28 55 7 -3 38 -15 69
-28z"/>
<path d="M6544 9726 c-5 -13 -19 -15 -83 -12 -174 10 -309 -38 -405 -144 -50
-55 -69 -102 -69 -172 0 -128 38 -186 159 -245 56 -26 86 -34 140 -37 60 -2
170 12 224 29 11 4 20 -3 28 -20 24 -53 32 -13 32 178 1 106 2 246 3 311 1 88
-1 120 -11 124 -6 2 -15 -3 -18 -12z m-78 -106 c38 -24 71 -72 79 -117 5 -30
3 -33 -32 -42 -21 -5 -56 -13 -78 -17 -22 -4 -49 -9 -60 -11 -11 -2 -65 -7
-121 -9 -87 -5 -103 -3 -118 12 -22 21 -16 76 12 113 75 101 218 132 318 71z
m-106 -255 c202 -20 191 -17 183 -58 -23 -123 -167 -180 -289 -113 -58 31
-120 106 -126 151 -4 37 20 44 112 33 36 -4 90 -10 120 -13z"/>
<path d="M6997 9640 c-28 -27 -55 -50 -58 -50 -4 0 -9 8 -12 19 -2 10 -25 31
-50 45 l-45 27 -93 -66 c-52 -37 -97 -72 -101 -78 -16 -27 7 -25 58 3 53 31
54 31 84 13 36 -21 70 -86 74 -140 5 -82 -31 -190 -82 -245 -16 -17 -21 -28
-13 -28 28 0 80 43 117 95 20 30 39 55 41 55 2 0 31 -27 65 -60 33 -33 64 -60
68 -60 5 0 38 30 74 68 l66 67 -42 18 c-133 57 -208 152 -175 223 l9 22 34
-20 c22 -13 54 -21 89 -22 44 -1 58 3 79 23 14 14 26 28 26 32 0 4 -20 17 -45
29 -25 12 -57 35 -72 51 -16 16 -31 29 -36 29 -4 0 -31 -22 -60 -50z"/>
<path d="M7442 9559 c-93 -60 -148 -120 -162 -180 -13 -55 -8 -134 10 -171 15
-28 77 -106 104 -130 26 -24 83 -39 109 -29 29 11 175 142 176 159 1 16 -9 15
-29 -3 -27 -24 -126 -27 -170 -5 -109 56 -149 167 -91 249 36 50 53 54 84 21
26 -27 66 -43 97 -37 18 3 80 28 80 32 0 5 -135 135 -140 135 -3 0 -33 -19
-68 -41z"/>
<path d="M7909 9525 c-25 -13 -70 -48 -98 -77 -115 -117 -118 -299 -7 -410 33
-32 84 -58 113 -58 10 0 45 25 78 55 33 30 63 55 67 55 11 0 54 88 71 145 18
63 13 116 -18 180 -30 63 -41 76 -89 109 -47 32 -58 32 -117 1z m76 -142 c43
-46 54 -74 51 -138 -2 -33 -6 -70 -9 -82 -9 -34 -38 -93 -47 -93 -12 0 -81 58
-114 96 -71 83 -76 204 -9 261 l25 22 39 -19 c21 -11 50 -32 64 -47z"/>
<path d="M8212 9328 c-19 -19 -14 -26 26 -37 44 -13 92 -14 92 -3 0 34 -93 65
-118 40z"/>
<path d="M8208 9244 c-17 -17 -6 -33 25 -39 77 -13 87 -13 92 -6 2 5 -1 15 -8
24 -13 18 -97 34 -109 21z"/>
<path d="M6025 9060 c-3 -4 -2 -68 1 -141 2 -74 6 -209 8 -300 2 -92 8 -174
14 -186 6 -11 27 -32 46 -46 l34 -27 52 65 c28 36 56 65 61 65 5 0 9 6 9 14 0
11 -9 13 -36 9 -63 -10 -64 -4 -64 289 l0 258 -37 1 c-21 0 -48 2 -61 3 -13 2
-25 0 -27 -4z"/>
<path d="M7000 9040 c0 -19 -93 -111 -139 -138 l-44 -26 35 -30 c28 -25 35
-37 32 -61 -7 -74 -6 -234 1 -270 9 -50 38 -82 84 -95 43 -12 63 -1 115 63 44
54 47 73 8 53 -23 -12 -33 -12 -58 -1 -34 14 -33 10 -38 180 -3 114 -2 115 54
115 77 0 77 43 0 49 -19 2 -38 8 -42 14 -7 12 -3 59 9 107 11 46 11 50 -3 50
-8 0 -14 -5 -14 -10z"/>
<path d="M6533 8945 c-32 -14 -92 -68 -131 -119 -25 -33 -29 -88 -8 -128 13
-24 12 -28 -5 -44 -10 -9 -29 -39 -43 -65 -27 -54 -27 -108 0 -165 29 -61 37
-61 101 -6 51 43 111 82 128 82 3 0 5 -6 5 -13 0 -8 17 -26 37 -40 37 -26 38
-27 53 -8 8 10 36 43 63 73 51 60 62 87 26 68 -17 -9 -27 -7 -55 12 l-33 23 2
125 2 125 -30 34 c-46 50 -74 62 -112 46z m-13 -110 c45 -33 47 -38 49 -106 1
-63 2 -63 -59 -59 -90 5 -124 94 -63 164 28 32 31 32 73 1z m50 -239 c0 -41
-2 -44 -49 -69 -45 -25 -49 -26 -63 -9 -24 27 -29 53 -18 86 10 30 12 31 70
33 l60 1 0 -42z"/>
<path d="M7210 8821 l-55 -49 27 -7 c54 -14 63 -36 64 -164 1 -64 2 -124 3
-133 2 -25 60 -88 82 -88 20 0 65 18 141 56 57 28 58 29 58 8 0 -17 62 -84 77
-84 4 0 26 16 48 35 27 24 36 38 28 43 -25 16 -33 65 -29 193 3 120 2 132 -18
157 -27 35 -78 82 -89 82 -4 0 -34 -25 -65 -55 -55 -53 -56 -55 -29 -55 15 0
41 -7 58 -16 l30 -15 -2 -104 c-1 -79 -5 -108 -16 -117 -20 -16 -102 -14 -139
3 l-29 14 0 137 0 137 -34 35 c-19 20 -40 36 -45 36 -6 0 -36 -22 -66 -49z"/>
<path d="M7820 8752 c-62 -53 -82 -76 -63 -70 20 6 82 -14 98 -32 15 -17 17
-40 16 -189 -2 -199 -9 -188 112 -172 4 1 7 79 7 174 0 176 4 197 39 197 8 0
36 -20 61 -45 l46 -45 57 48 c52 43 78 89 42 76 -8 -3 -38 13 -70 40 l-56 45
-48 -34 c-27 -19 -53 -35 -58 -35 -5 0 -22 14 -39 31 -16 17 -40 39 -54 48
-25 18 -25 18 -90 -37z"/>
<path d="M5695 7413 c-61 -13 -145 -59 -145 -79 0 -30 28 -35 79 -15 28 10 51
15 51 11 0 -5 -4 -12 -10 -15 -23 -14 -6 -107 24 -127 20 -14 -31 -8 -68 7
-32 14 -36 14 -36 0 0 -20 71 -55 124 -61 59 -8 110 8 208 63 46 26 105 55
131 64 47 16 48 17 20 23 -15 4 -82 33 -148 66 -116 58 -175 75 -230 63z m196
-100 c38 -21 69 -40 69 -43 0 -8 -150 -79 -150 -71 0 5 6 14 14 20 26 21 28
61 7 97 -11 19 -18 34 -14 34 3 0 37 -17 74 -37z"/>
</g>
</svg>
