<?xml version="1.0" standalone="no"?>
<!DOCTYPE svg PUBLIC "-//W3C//DTD SVG 20010904//EN"
 "http://www.w3.org/TR/2001/REC-SVG-20010904/DTD/svg10.dtd">
<svg version="1.0" xmlns="http://www.w3.org/2000/svg"
 width="900.000000pt" height="900.000000pt" viewBox="0 0 900.000000 900.000000"
 preserveAspectRatio="xMidYMid meet">
<metadata>
Created by potrace 1.14, written by Peter Selinger 2001-2017
</metadata>
<g transform="translate(0.000000,900.000000) scale(0.100000,-0.100000)"
fill="#000000" stroke="none">
<path d="M3495 8990 c-790 -23 -1389 -55 -2020 -111 -320 -28 -509 -49 -518
-58 -4 -4 -6 -1155 -4 -2557 l3 -2549 22 -140 c35 -222 70 -398 113 -564 344
-1337 1262 -2323 2621 -2815 178 -64 446 -138 619 -171 l146 -28 134 27 c1155
232 2118 837 2702 1698 368 541 591 1161 687 1911 20 155 20 208 20 2677 l0
2520 -22 0 c-13 0 -63 5 -113 10 -492 51 -1435 110 -2250 140 -368 14 -1771
20 -2140 10z m480 -461 c134 -16 264 -53 370 -103 l95 -45 0 -1060 c0 -628 -4
-1061 -9 -1061 -5 0 -39 13 -76 30 -90 40 -270 96 -374 116 -100 20 -275 22
-376 5 -38 -7 -205 -41 -371 -76 -371 -79 -548 -105 -724 -108 l-135 -2 -3
1079 c-1 594 1 1083 5 1087 5 4 42 3 83 -2 141 -17 449 -22 544 -10 50 7 158
34 240 61 283 91 499 117 731 89z m1412 0 c43 -6 139 -30 213 -54 138 -44 271
-73 440 -96 106 -14 491 -18 588 -6 l62 8 0 -1081 0 -1080 -110 0 c-181 0
-390 31 -962 140 -320 62 -384 69 -528 59 -186 -13 -353 -56 -478 -125 -34
-19 -65 -34 -67 -34 -3 0 -5 475 -5 1056 l0 1055 56 25 c30 13 106 40 168 59
247 74 448 98 623 74z m-3566 -554 c121 -85 128 -279 12 -374 -51 -42 -126
-58 -199 -42 -137 31 -208 187 -148 325 20 46 44 72 94 101 40 23 54 25 122
23 66 -3 82 -7 119 -33z m5174 -95 c51 0 106 7 150 20 84 24 106 25 174 4 72
-21 134 -80 161 -150 11 -30 20 -57 20 -59 0 -2 -17 3 -37 12 -70 29 -131 15
-310 -69 -181 -87 -261 -116 -324 -120 l-44 -3 -3 206 -2 206 67 -23 c48 -17
91 -24 148 -24z m-4724 6 c2 -2 3 -61 1 -130 l-3 -126 -130 0 -129 0 0 130 0
130 128 0 c71 0 131 -2 133 -4z m-475 -821 c165 -82 165 -328 0 -410 -103 -52
-237 -19 -301 73 -25 37 -30 55 -33 117 -3 61 0 82 18 120 55 113 199 159 316
100z m5020 -12 c49 -21 256 -23 385 -4 102 15 146 7 201 -39 36 -30 80 -107
92 -162 l6 -27 -42 19 c-81 37 -130 28 -280 -48 -134 -69 -243 -106 -350 -118
l-58 -7 0 202 c0 110 2 201 4 201 2 0 21 -8 42 -17z m-4546 -213 l0 -130 -130
0 -130 0 0 130 0 130 130 0 130 0 0 -130z m2400 -908 c150 -64 201 -72 288
-46 18 5 22 3 22 -17 0 -13 -12 -36 -27 -51 l-27 -28 37 0 c50 0 99 21 124 54
28 35 33 33 33 -15 0 -75 -56 -130 -148 -145 -44 -7 -54 -19 -24 -28 33 -11
59 -50 71 -108 14 -67 54 -108 102 -108 27 0 29 -2 19 -20 -6 -12 -23 -26 -37
-33 -21 -9 -32 -8 -64 10 -44 24 -52 12 -23 -32 8 -13 22 -65 30 -116 17 -106
41 -158 85 -189 19 -14 27 -26 21 -32 -16 -16 -61 3 -102 44 -40 40 -52 35
-25 -12 22 -39 18 -129 -10 -219 -14 -45 -30 -81 -35 -81 -5 0 -17 12 -27 27
-27 39 -93 107 -99 101 -3 -3 8 -28 24 -54 35 -58 48 -96 62 -187 12 -75 5
-137 -15 -137 -7 0 -30 27 -51 60 -20 32 -41 57 -45 55 -10 -7 8 -82 32 -131
10 -22 42 -65 70 -95 61 -64 115 -144 135 -201 18 -53 18 -135 -2 -285 -16
-114 -18 -122 -35 -112 -11 5 -36 41 -57 79 -20 38 -41 70 -46 70 -29 0 41
-173 93 -233 25 -28 36 -54 48 -115 15 -77 12 -152 -7 -152 -4 0 -20 21 -35
48 -31 52 -54 82 -65 82 -4 0 5 -37 20 -82 60 -181 65 -339 15 -478 -15 -41
-30 -79 -34 -83 -4 -4 -20 50 -36 120 -15 70 -34 150 -42 176 -14 48 -15 49
-35 30 -11 -10 -47 -56 -79 -103 -32 -48 -69 -96 -82 -108 l-24 -23 -6 69
c-16 163 -104 491 -147 544 l-18 23 -12 -30 c-105 -273 -203 -550 -216 -607
-25 -120 -28 -241 -10 -346 9 -52 21 -103 27 -114 6 -11 8 -22 5 -25 -11 -11
-85 163 -107 248 -14 57 -23 130 -26 226 -5 125 -3 149 16 212 15 50 31 80 56
104 26 25 35 43 35 66 0 36 -27 101 -41 101 -5 0 -9 -1 -9 -2 -1 -34 -23 -127
-35 -144 -13 -21 -18 -22 -41 -12 -14 7 -32 24 -40 39 -28 54 -12 167 31 224
58 77 82 164 53 193 -19 19 -26 15 -37 -21 -7 -19 -24 -46 -40 -61 -29 -27
-29 -28 -40 -8 -19 35 -41 134 -41 182 0 72 27 178 64 257 36 76 103 180 130
202 18 15 22 41 6 41 -5 0 -32 -16 -59 -35 -77 -56 -85 -51 -78 48 11 182 99
298 250 332 l50 11 -36 22 c-56 32 -48 46 36 60 121 21 201 68 226 135 12 31
15 87 5 87 -4 0 -24 -20 -45 -44 -49 -55 -110 -82 -151 -65 -34 14 -35 22 -5
36 30 14 51 56 43 87 -10 40 -58 60 -128 52 -49 -6 -64 -4 -92 13 -18 11 -38
32 -44 45 -11 24 -10 24 23 19 27 -4 52 3 112 32 42 21 94 40 115 42 53 8 139
-35 175 -87 16 -22 31 -40 34 -40 12 0 18 59 9 90 -16 55 -59 90 -142 114 -27
8 -45 24 -70 61 -40 60 -98 94 -173 102 -53 6 -57 8 -75 44 -22 43 -64 79 -92
79 -38 0 -90 -33 -106 -67 -9 -18 -19 -33 -23 -33 -17 0 -61 72 -66 107 -9 67
45 155 123 204 42 26 53 19 78 -51 17 -48 46 -80 73 -80 19 0 16 25 -7 70 -24
47 -26 95 -4 104 28 11 51 6 69 -14 25 -28 38 -25 53 10 8 16 27 40 44 52 87
62 184 62 328 0z m-1464 -112 c102 -44 157 -204 134 -386 -6 -48 -6 -82 0 -94
12 -22 72 -51 121 -57 22 -3 39 -9 39 -13 0 -14 -60 -89 -79 -99 -28 -15 -81
-14 -131 4 -57 20 -79 19 -88 -4 -4 -11 -25 -34 -47 -51 -56 -44 -75 -77 -75
-131 0 -33 7 -54 25 -79 29 -40 35 -119 10 -140 -32 -26 -11 -109 32 -129 34
-16 45 -15 184 20 143 36 174 34 247 -10 33 -21 61 -31 79 -29 27 3 28 5 27
56 -2 62 -9 72 -78 111 -87 49 -102 93 -70 202 18 61 70 169 82 169 4 0 15
-22 25 -50 27 -76 73 -127 187 -206 117 -82 141 -106 176 -180 36 -76 41 -154
15 -238 -26 -85 -26 -138 -1 -195 18 -39 19 -46 6 -60 -24 -26 -62 -139 -76
-221 -22 -129 -1 -257 56 -343 22 -34 23 -41 13 -82 -15 -58 -7 -181 14 -221
9 -17 30 -46 47 -64 31 -33 31 -34 18 -79 -17 -60 -14 -191 5 -263 22 -82 2
-72 -39 20 -82 180 -107 225 -165 286 -93 100 -240 165 -371 166 -48 0 -48 0
-48 -34 0 -26 14 -53 61 -115 72 -95 89 -145 89 -258 0 -68 -3 -85 -16 -90
-11 -4 -23 3 -36 20 -11 15 -48 55 -82 90 -61 60 -77 89 -104 187 l-9 35 -56
-58 c-95 -98 -148 -246 -134 -370 4 -27 4 -47 0 -43 -11 11 -93 227 -93 244 0
9 56 88 124 175 85 109 143 196 188 280 107 202 124 257 58 186 -38 -41 -212
-270 -300 -394 -35 -49 -74 -105 -88 -124 l-25 -34 -48 99 c-26 55 -48 102
-49 107 0 4 27 42 61 84 75 94 107 150 186 323 99 217 65 187 -125 -112 -68
-107 -134 -207 -146 -223 l-24 -29 -42 37 c-23 21 -46 37 -53 34 -13 -4 -35
-106 -36 -169 -1 -38 -8 -55 -39 -95 -60 -74 -235 -233 -246 -222 -2 2 -7 51
-10 109 l-7 105 82 90 c136 151 182 213 283 380 107 177 125 232 50 151 -54
-59 -168 -198 -319 -390 -95 -121 -110 -137 -120 -121 -5 10 -30 43 -54 73
l-43 54 33 47 c157 222 209 309 276 465 79 186 2 97 -226 -259 -74 -116 -136
-212 -137 -213 -1 -2 -12 -1 -25 3 -20 7 -21 11 -16 72 4 36 18 130 33 209 30
164 26 206 -12 132 -32 -62 -60 -169 -79 -297 -9 -58 -18 -108 -21 -110 -3 -3
-33 -12 -67 -21 -54 -13 -62 -18 -65 -40 -2 -20 6 -33 36 -57 58 -47 67 -92
47 -245 -21 -160 -12 -210 53 -295 33 -44 24 -63 -31 -63 -29 0 -53 -7 -70
-20 -14 -11 -27 -20 -30 -20 -6 0 -44 203 -56 305 -28 226 -20 560 19 850 22
164 25 219 11 211 -12 -8 -80 -164 -237 -550 -243 -595 -266 -647 -283 -644
-28 6 -43 75 -37 163 23 296 226 813 433 1103 35 48 63 93 63 100 0 34 -47 -1
-185 -139 -224 -222 -335 -299 -459 -315 -23 -3 -52 -2 -65 3 -22 9 -5 27 250
270 344 327 485 473 456 473 -1 0 -63 -31 -138 -69 -151 -76 -271 -111 -381
-111 -67 0 -178 18 -178 29 0 3 42 28 93 55 380 202 621 373 699 495 25 41 39
98 21 89 -311 -159 -516 -206 -685 -158 -46 13 -47 22 -5 42 58 28 546 332
937 584 166 107 178 113 227 112 28 0 64 7 79 16 28 15 28 15 -46 16 -132 0
-180 45 -145 135 l16 44 39 -41 39 -40 88 4 c71 4 118 15 243 56 85 28 169 53
185 55 44 6 105 -3 151 -23z m3107 -4 c52 -13 141 -43 198 -66 83 -34 117 -42
171 -44 47 -1 68 -5 68 -13 0 -25 -39 -52 -84 -58 -42 -7 -65 -20 -54 -31 3
-2 39 -13 81 -23 93 -24 204 -75 286 -130 62 -42 78 -71 40 -71 -27 0 107
-148 375 -412 110 -108 197 -200 194 -204 -10 -9 -75 15 -132 48 -70 41 -178
124 -281 215 -126 111 -155 135 -155 128 0 -23 49 -84 181 -222 288 -301 411
-448 514 -614 30 -49 55 -92 55 -95 0 -25 -195 50 -314 120 -92 55 -144 115
-267 306 -57 89 -124 190 -149 223 -44 60 -92 98 -106 84 -4 -3 79 -150 184
-324 104 -175 215 -364 246 -419 68 -123 132 -288 158 -409 38 -180 34 -652
-8 -812 -17 -65 -49 -107 -63 -84 -12 18 -87 309 -166 641 -86 360 -143 560
-205 717 -49 127 -132 280 -172 318 l-21 20 6 -20 c3 -11 37 -103 75 -205 123
-323 191 -570 227 -816 9 -61 15 -135 13 -164 l-3 -52 -60 -22 c-90 -33 -171
-76 -214 -112 l-38 -33 -6 157 c-10 232 -52 477 -118 682 -85 260 -93 190 -29
-248 17 -112 30 -215 30 -229 0 -20 -17 -4 -87 84 -120 150 -223 271 -279 329
-66 67 -70 40 -9 -74 91 -169 169 -274 281 -381 l107 -101 -7 -98 c-6 -97 -19
-168 -31 -180 -12 -12 -42 17 -179 179 -76 90 -195 231 -264 312 -117 139
-166 187 -178 175 -8 -8 33 -95 104 -223 65 -117 72 -125 280 -333 l213 -214
-31 -52 c-18 -29 -46 -69 -64 -90 l-31 -37 -105 82 c-58 45 -108 86 -111 92
-4 5 -10 31 -13 56 -9 67 -30 94 -70 88 -17 -2 -38 -7 -47 -11 -11 -5 -42 23
-114 103 -113 127 -198 201 -203 178 -8 -40 112 -232 184 -296 l47 -41 -41
-82 c-22 -46 -44 -94 -49 -108 -9 -24 -14 -21 -137 98 -69 67 -131 122 -136
122 -26 0 7 -86 56 -147 18 -22 69 -67 111 -99 43 -31 80 -59 82 -60 2 -2 -9
-40 -25 -85 -25 -73 -36 -89 -94 -145 -95 -91 -294 -255 -298 -244 -4 12 60
140 98 195 41 59 117 125 189 164 33 18 61 34 61 37 0 13 -30 61 -50 79 -24
21 -88 25 -187 12 l-53 -8 0 38 c0 21 -11 94 -25 163 -13 69 -25 148 -25 175
0 74 -10 85 -57 60 -20 -11 -60 -43 -89 -70 -49 -49 -51 -53 -58 -120 -10
-103 -33 -171 -81 -250 -23 -38 -48 -87 -55 -107 -6 -21 -15 -38 -20 -38 -16
0 -23 37 -29 156 -6 120 -6 121 -48 185 -61 93 -82 147 -97 246 -12 82 -12 89
5 108 49 55 63 168 34 275 -19 72 -19 208 1 350 9 67 13 138 10 170 -8 72 -55
166 -116 233 l-48 53 14 54 c8 30 14 68 14 86 0 17 2 33 5 36 3 3 24 -1 47 -9
76 -26 109 -3 153 108 22 57 35 75 71 100 75 51 92 113 54 191 -11 23 -20 43
-20 44 0 7 68 -22 97 -40 71 -46 79 -103 31 -219 -39 -94 -34 -102 55 -99 77
2 142 24 180 60 30 28 67 92 67 115 0 48 35 120 85 176 77 87 75 121 -14 166
-33 16 -33 18 -27 63 l6 47 -62 -62 c-35 -33 -73 -66 -85 -72 -32 -16 -76 -13
-133 9 -61 24 -101 25 -141 4 -37 -19 -46 -13 -33 24 7 21 29 37 101 72 51 25
106 59 123 75 28 27 31 34 25 70 -18 119 -18 118 14 166 17 25 55 69 84 97 63
59 113 77 168 60 33 -9 41 -8 68 11 89 64 218 76 374 37z m-2505 -333 c24 -44
88 -57 245 -49 170 8 233 -2 283 -46 19 -17 39 -39 44 -49 10 -17 8 -17 -25
-4 -48 21 -161 19 -290 -5 -190 -35 -274 -25 -328 39 -49 59 -48 99 4 171 l32
44 12 -39 c6 -22 17 -50 23 -62z m763 -2197 c25 -111 26 -226 4 -335 -17 -81
-16 -119 2 -250 l6 -44 23 94 c13 52 38 123 56 159 33 64 140 190 162 190 6 0
27 -55 46 -123 29 -104 34 -138 35 -228 0 -104 -1 -107 -42 -190 -23 -46 -64
-119 -92 -163 -58 -90 -71 -142 -70 -264 l0 -87 33 100 c39 119 67 177 140
283 67 99 90 161 115 306 19 117 51 203 97 263 28 37 44 42 44 14 0 -11 11
-41 25 -67 53 -100 25 -248 -83 -439 -31 -55 -59 -104 -61 -109 -2 -5 11 -6
29 -2 68 13 132 87 161 183 6 23 15 40 19 38 4 -3 16 -34 25 -69 23 -83 15
-103 -60 -163 -84 -68 -116 -124 -123 -213 -3 -40 -1 -70 5 -70 10 0 63 61
138 160 76 99 106 175 115 286 6 89 9 96 62 186 61 103 83 162 103 273 13 78
38 126 81 158 l24 18 0 -48 c0 -26 7 -88 16 -138 21 -118 15 -209 -19 -277
-14 -29 -24 -54 -22 -56 2 -2 24 10 49 28 74 50 126 70 189 70 68 0 74 -11 14
-27 -93 -25 -169 -109 -227 -251 -86 -209 -130 -279 -216 -343 -46 -34 -104
-112 -92 -124 9 -9 98 19 153 48 42 22 97 68 186 158 70 70 162 151 205 180
158 106 236 213 294 404 40 129 52 155 92 206 54 69 63 57 62 -79 -1 -80 -8
-135 -28 -216 -31 -129 -69 -203 -143 -286 -31 -33 -53 -63 -50 -67 3 -3 66
25 139 61 271 137 432 269 537 442 102 166 139 212 214 265 73 52 219 129 245
129 8 0 -5 -24 -31 -57 -58 -75 -63 -87 -72 -153 -11 -89 -34 -160 -81 -247
-40 -75 -42 -83 -24 -83 11 0 41 12 68 27 37 20 54 25 77 19 l30 -8 -25 -16
c-30 -19 -83 -73 -167 -169 -136 -155 -240 -196 -645 -257 -270 -41 -391 -90
-638 -262 -178 -124 -305 -193 -406 -223 -39 -12 -78 -29 -88 -40 -16 -17 -13
-20 76 -64 111 -55 190 -70 279 -56 79 13 96 20 318 138 260 139 259 139 170
39 -199 -224 -273 -281 -435 -331 -185 -58 -369 -77 -563 -57 -70 7 -144 10
-164 6 -43 -8 -131 -64 -135 -87 -2 -13 6 -15 51 -11 72 6 118 -11 177 -63
143 -127 256 -142 360 -48 117 105 280 109 396 9 l38 -33 -38 -7 c-41 -8 -73
-38 -178 -165 -90 -109 -205 -153 -340 -131 -49 7 -84 23 -163 71 -55 35 -127
79 -160 100 -34 20 -84 45 -113 55 -51 18 -52 18 -79 -2 -37 -28 -51 -81 -32
-125 7 -19 44 -72 82 -119 84 -103 122 -178 113 -223 -15 -80 -87 -147 -166
-155 -73 -7 -140 29 -230 124 -39 42 -70 77 -68 79 2 2 28 -3 58 -11 99 -26
182 -14 196 28 10 34 -5 82 -47 152 -53 88 -70 130 -78 190 -3 27 -10 51 -16
53 -5 1 -62 -45 -125 -103 -186 -170 -313 -244 -425 -247 -90 -1 -116 15 -278
170 -168 161 -286 259 -379 315 -79 48 -67 53 106 45 219 -10 350 -56 430
-151 96 -114 140 -154 180 -161 83 -16 143 23 275 179 82 98 95 120 78 133
-18 15 -114 50 -187 70 -97 26 -306 24 -382 -3 -32 -12 -58 -17 -58 -13 0 17
132 148 178 178 66 41 152 65 210 56 94 -14 190 -75 262 -167 58 -72 65 -29
13 75 -70 140 -240 226 -423 214 -93 -6 -140 -22 -305 -102 -225 -111 -268
-118 -389 -61 -129 59 -315 199 -402 303 -48 56 -118 163 -111 169 2 3 28 -12
58 -32 121 -82 280 -146 400 -163 103 -14 186 -1 271 44 94 49 166 66 279 66
121 1 229 -24 401 -92 71 -28 131 -49 134 -47 4 5 -85 84 -149 131 -55 41
-151 84 -241 107 -157 40 -424 19 -577 -45 -103 -44 -162 -33 -299 55 -51 33
-104 60 -117 60 -37 0 -27 16 37 59 119 79 233 100 360 66 30 -8 61 -15 69
-15 29 0 -22 41 -93 75 -60 28 -93 36 -206 50 -171 20 -492 85 -652 131 -127
36 -317 99 -325 108 -13 12 10 38 49 56 51 23 129 25 210 6 l57 -13 -74 69
c-87 81 -130 143 -152 217 -14 51 -14 64 2 173 18 126 16 170 -15 231 l-20 37
29 0 c77 0 150 -53 176 -129 9 -25 22 -111 30 -190 16 -155 27 -206 56 -262
17 -34 77 -94 85 -86 2 2 -1 18 -7 36 -17 48 -6 115 26 157 l28 36 26 -53 c35
-72 115 -150 195 -189 70 -35 86 -34 110 2 14 21 12 30 -21 112 -50 125 -67
233 -60 385 3 68 8 126 11 129 24 24 101 -136 145 -303 18 -66 43 -144 56
-173 37 -81 193 -292 216 -292 16 0 18 83 4 175 -21 137 -19 230 5 283 20 44
68 112 79 112 3 0 14 -20 24 -45 18 -43 48 -77 132 -149 l40 -34 1 -156 c0
-153 1 -155 30 -202 36 -59 181 -162 379 -271 77 -42 173 -99 214 -126 80 -54
196 -164 206 -197 11 -34 28 -23 22 14 -15 92 -79 161 -266 283 -285 187 -386
293 -436 453 -13 45 -16 94 -15 263 0 119 -4 224 -10 247 -7 25 -31 62 -65 99
-30 32 -55 61 -55 64 0 12 112 -22 156 -48 157 -92 324 -360 394 -636 29 -114
47 -144 153 -262 51 -57 108 -124 126 -151 18 -26 35 -46 37 -43 2 2 -3 24
-12 48 -47 134 -84 361 -84 529 0 237 54 454 157 630 l26 44 19 -54 c11 -30
28 -95 39 -144z m-1781 -274 c0 -57 7 -116 20 -166 12 -43 18 -81 15 -84 -14
-15 -143 136 -165 193 -10 27 -7 31 52 86 35 33 66 59 71 59 4 0 7 -40 7 -88z
m3650 -120 c31 -26 71 -60 90 -76 l35 -29 -60 -53 c-33 -30 -66 -54 -73 -54
-7 0 -31 12 -53 26 -37 23 -40 29 -35 57 3 18 8 55 11 82 9 71 14 95 23 95 4
0 32 -22 62 -48z m-66 -245 c18 -13 16 -16 -29 -50 -41 -32 -75 -47 -75 -33 0
2 11 29 25 60 27 60 29 61 79 23z m631 -194 c-46 -164 -126 -332 -197 -416
-25 -31 -27 -31 -45 -14 -14 14 -19 37 -21 105 -4 86 19 234 36 240 38 12 146
87 191 132 31 31 58 55 60 53 1 -1 -9 -46 -24 -100z m-4839 56 c38 -17 83 -37
101 -44 26 -12 35 -24 48 -67 19 -63 21 -204 4 -256 -27 -85 -51 -82 -94 11
-48 104 -143 387 -130 387 1 0 34 -14 71 -31z"/>
<path d="M3508 8201 c-82 -52 -127 -168 -99 -254 23 -67 126 -137 202 -137 27
0 129 64 129 81 0 8 -17 9 -53 5 -32 -4 -65 -2 -83 4 -38 15 -84 59 -84 81 0
10 36 51 80 91 44 40 80 76 80 80 0 4 -15 23 -34 42 -42 45 -75 47 -138 7z
m63 -52 c16 -17 29 -34 29 -38 0 -12 -89 -95 -96 -88 -3 3 -9 26 -11 51 -4 35
-1 51 16 75 13 17 25 31 28 31 3 0 18 -14 34 -31z"/>
<path d="M3938 8190 c-69 -21 -158 -101 -158 -141 0 -28 26 -75 51 -92 20 -14
19 -16 -35 -67 -64 -60 -63 -69 11 -94 70 -24 129 -20 198 13 126 59 151 142
60 204 l-34 23 44 35 c25 18 44 41 42 49 -3 22 -78 70 -117 75 -19 2 -47 0
-62 -5z m23 -87 c27 -14 49 -30 49 -34 0 -15 -45 -39 -74 -39 -31 0 -86 43
-86 66 0 14 27 33 49 34 7 0 35 -12 62 -27z m72 -205 c7 -22 -14 -56 -43 -68
-23 -10 -36 -8 -72 8 -72 31 -76 44 -27 85 l42 36 47 -24 c27 -13 50 -30 53
-37z"/>
<path d="M3078 8140 l-43 -38 38 -15 37 -16 0 -141 0 -141 43 3 42 3 3 141 c3
167 12 187 61 132 l29 -33 43 30 c49 34 60 55 31 55 -12 0 -31 14 -45 31 l-24
31 -42 -26 -42 -27 -44 25 -44 24 -43 -38z"/>
<path d="M2927 8139 c-5 -17 -10 -20 -29 -14 -13 4 -61 9 -108 12 -85 5 -86 5
-130 -29 -24 -18 -58 -53 -74 -76 -26 -36 -30 -51 -29 -106 1 -89 24 -133 93
-173 62 -38 119 -43 210 -18 55 15 55 15 75 -10 34 -42 60 -31 30 12 -13 18
-16 59 -15 223 0 180 -8 238 -23 179z m-77 -51 c55 -28 72 -69 72 -172 0 -76
-14 -104 -72 -143 -50 -35 -93 -30 -141 15 -89 84 -73 252 31 304 45 23 57 23
110 -4z"/>
<path d="M4192 7983 c2 -14 15 -19 48 -21 l45 -2 -24 20 c-30 26 -74 27 -69 3z"/>
<path d="M4192 7918 c6 -16 55 -31 76 -23 16 6 15 8 -2 21 -24 17 -79 19 -74
2z"/>
<path d="M3740 7725 c0 -12 -14 -15 -67 -15 -101 -1 -167 -35 -192 -103 -13
-34 0 -70 32 -92 14 -9 62 -31 108 -50 93 -39 109 -54 109 -101 0 -58 -61 -79
-153 -53 -47 13 -76 40 -84 80 -6 30 -19 46 -30 35 -10 -9 -3 -148 8 -168 10
-19 11 -18 32 4 22 23 25 24 104 14 71 -8 85 -7 108 8 84 55 98 200 23 246
-17 10 -58 23 -91 29 -70 12 -107 34 -107 61 0 24 54 60 88 60 34 0 83 -24
114 -54 17 -18 29 -23 33 -16 7 11 -1 88 -12 116 -7 19 -23 18 -23 -1z"/>
<path d="M3295 7669 c-29 -49 -77 -100 -107 -112 -10 -5 -7 -11 10 -23 20 -15
22 -24 22 -116 0 -108 13 -155 51 -182 34 -23 46 -20 84 22 40 42 44 57 15 49
-11 -3 -29 2 -41 12 -18 14 -21 29 -22 106 l-2 90 30 3 c70 6 95 13 95 28 0
12 -11 15 -52 13 -45 -3 -53 0 -61 19 -10 22 -1 79 18 125 16 37 -12 14 -40
-34z"/>
<path d="M4151 7696 c-16 -17 -21 -33 -19 -56 4 -42 27 -58 62 -42 35 16 36
69 3 100 l-23 22 -23 -24z"/>
<path d="M2680 7614 c-103 -58 -160 -145 -160 -244 0 -66 23 -108 77 -144 40
-26 111 -42 128 -29 12 10 55 70 55 78 0 3 -16 5 -36 5 -109 0 -189 110 -154
214 13 41 44 67 69 59 9 -3 30 -19 47 -34 l30 -29 32 33 32 33 -30 42 c-16 23
-33 42 -38 42 -4 0 -27 -12 -52 -26z"/>
<path d="M2975 7596 c-36 -16 -93 -71 -105 -100 -9 -24 -2 -86 12 -103 7 -8 1
-23 -16 -46 -42 -55 -31 -128 24 -157 16 -8 28 -4 61 20 48 34 69 38 69 12 0
-10 6 -27 14 -37 13 -18 16 -16 65 25 52 44 65 66 32 55 -36 -11 -44 17 -37
135 l7 110 -30 44 c-24 35 -52 59 -64 56 -1 -1 -16 -7 -32 -14z m14 -82 c28
-36 29 -109 2 -124 -32 -17 -58 -12 -80 16 -28 35 -26 75 4 108 30 33 48 33
74 0z m31 -189 c0 -60 -26 -76 -75 -45 -38 23 -46 38 -34 61 5 11 17 15 33 12
13 -3 32 0 43 6 29 17 33 13 33 -34z"/>
<path d="M3926 7552 c-61 -50 -84 -84 -97 -140 -14 -65 25 -148 83 -175 70
-32 71 -31 111 29 20 31 37 61 37 65 0 14 -16 10 -30 -6 -7 -8 -17 -15 -22
-15 -26 0 -82 37 -99 64 -21 35 -25 106 -7 124 7 7 37 12 68 12 42 0 61 5 73
18 10 10 17 21 17 24 0 5 -67 49 -73 48 -1 -1 -28 -22 -61 -48z"/>
<path d="M4137 7492 c-52 -53 -57 -63 -27 -55 12 3 29 -2 40 -12 17 -16 20
-31 20 -120 0 -95 2 -103 25 -125 l25 -23 27 24 c15 13 35 33 44 44 16 19 16
20 -15 30 l-31 10 0 110 c0 91 -3 115 -19 138 -10 15 -24 27 -30 27 -6 0 -33
-22 -59 -48z"/>
<path d="M3662 7145 l-34 -33 37 -27 36 -28 34 33 c37 36 43 50 22 50 -8 0
-22 9 -32 20 -22 25 -22 25 -63 -15z"/>
<path d="M3460 7100 c-7 -17 -30 -55 -51 -86 -43 -61 -45 -67 -25 -83 10 -9
15 -42 18 -116 3 -114 14 -137 70 -150 21 -5 29 -2 39 17 6 12 25 40 42 61 31
40 30 62 -1 34 -24 -22 -35 -21 -57 3 -13 14 -18 37 -19 82 l-1 63 40 5 c27 3
40 10 40 20 0 10 -13 17 -40 20 -44 6 -44 3 -32 103 8 62 -3 75 -23 27z"/>
<path d="M2749 7042 c-54 -35 -116 -103 -135 -148 -19 -45 -18 -118 2 -157 22
-44 82 -105 124 -127 l35 -18 46 69 c26 37 45 70 42 73 -3 3 -19 -2 -35 -10
-18 -9 -40 -13 -55 -9 -34 8 -73 35 -72 49 0 9 67 67 171 147 20 16 20 16 -9
57 -17 23 -36 55 -43 72 -7 16 -15 30 -19 30 -4 0 -27 -13 -52 -28z m20 -103
c17 -28 29 -55 25 -60 -7 -13 -115 -92 -118 -87 -15 17 -26 53 -26 82 0 27 9
46 36 76 20 22 40 40 44 40 4 0 21 -23 39 -51z"/>
<path d="M4006 7022 c-68 -51 -72 -61 -59 -123 9 -48 8 -55 -13 -87 -38 -55
-29 -147 17 -175 13 -8 28 -3 65 20 76 48 89 49 131 14 21 -17 42 -31 48 -31
6 0 29 19 50 41 36 37 37 41 16 36 -45 -11 -61 8 -62 71 0 31 -3 87 -8 125 -6
60 -11 71 -46 107 -49 51 -75 51 -139 2z m50 -63 c31 -19 34 -25 34 -70 0 -43
-2 -49 -21 -49 -33 0 -86 37 -93 65 -7 29 12 75 32 75 8 0 30 -9 48 -21z m3
-149 c29 0 31 -2 31 -39 0 -37 -3 -40 -37 -52 -35 -11 -38 -10 -60 17 -26 32
-28 46 -13 75 9 15 15 17 30 9 10 -5 32 -10 49 -10z"/>
<path d="M2975 7000 l-39 -40 25 -26 c22 -24 24 -34 29 -167 l5 -142 35 0 35
0 3 147 c2 138 4 148 24 159 14 8 27 8 43 1 18 -8 23 -21 28 -71 3 -34 3 -88
0 -120 -6 -66 3 -131 18 -131 5 0 34 19 64 41 53 40 64 62 26 52 -18 -4 -19 4
-26 124 -7 130 -22 189 -49 199 -9 3 -35 -10 -62 -30 -26 -20 -51 -36 -55 -36
-5 0 -18 18 -29 40 -11 22 -24 40 -28 40 -4 0 -25 -18 -47 -40z"/>
<path d="M3677 6992 c-49 -49 -58 -66 -32 -56 9 4 29 1 45 -6 l30 -12 0 -102
c0 -94 2 -104 23 -124 31 -29 38 -28 75 13 36 39 38 45 18 45 -21 0 -26 23
-26 112 0 74 -3 86 -31 130 -17 26 -36 48 -43 48 -6 0 -33 -22 -59 -48z"/>
<path d="M5441 8337 c-23 -25 -28 -76 -9 -95 18 -18 53 -15 71 6 31 34 19 75
-29 105 -6 3 -21 -4 -33 -16z"/>
<path d="M5148 8283 c-26 -7 -22 -20 7 -27 40 -10 50 -49 30 -121 -25 -92 -57
-175 -65 -170 -8 5 -72 152 -85 192 -5 19 0 26 29 40 63 30 52 34 -126 53
-119 12 -168 13 -168 1 0 -4 19 -11 41 -14 23 -3 50 -14 60 -24 24 -24 117
-213 170 -346 l44 -108 18 43 c10 24 47 128 82 232 36 104 72 197 80 206 9 10
27 21 41 24 13 4 24 11 24 16 0 10 -147 12 -182 3z"/>
<path d="M5801 8227 c-22 -35 -92 -105 -127 -125 -19 -12 -19 -12 3 -31 20
-16 24 -34 32 -130 6 -61 15 -128 21 -150 12 -45 45 -91 66 -91 15 0 83 87 84
108 0 8 -9 12 -22 10 -32 -4 -45 30 -53 145 -4 53 -5 97 -3 98 1 0 44 6 93 12
68 9 90 16 90 27 0 12 -17 16 -81 18 -74 3 -82 5 -88 24 -3 12 0 42 6 65 14
56 6 63 -21 20z"/>
<path d="M5358 8125 c-49 -45 -60 -62 -32 -51 9 3 34 -4 55 -16 l39 -22 0
-106 c0 -95 3 -111 23 -141 18 -26 31 -35 59 -37 31 -3 39 2 67 36 17 22 31
42 31 45 0 3 -11 7 -23 11 -13 3 -36 15 -51 27 -27 21 -27 22 -25 130 2 108 2
110 -26 139 -16 17 -38 30 -49 30 -12 -1 -42 -20 -68 -45z"/>
<path d="M6118 8045 c-65 -44 -93 -113 -52 -129 12 -5 11 -13 -10 -48 -39 -69
-41 -100 -12 -163 14 -30 32 -58 40 -61 9 -3 28 4 43 16 23 18 86 50 98 50 2
0 13 -17 25 -37 l21 -36 47 46 46 46 -27 28 c-25 27 -26 34 -29 148 l-3 119
-40 23 c-53 30 -101 29 -147 -2z m52 -46 c19 -11 41 -28 48 -37 13 -17 17
-102 5 -102 -19 0 -137 67 -147 82 -8 14 -5 23 19 48 16 16 31 30 34 30 3 0
22 -9 41 -21z m13 -143 l47 -19 0 -52 c0 -51 0 -52 -37 -63 -35 -11 -40 -10
-55 11 -27 34 -40 90 -28 122 6 15 13 25 18 23 4 -2 28 -11 55 -22z"/>
<path d="M5151 7657 c-7 -7 -37 -10 -80 -9 -68 3 -170 -17 -221 -43 -41 -22
-101 -87 -122 -133 -16 -35 -18 -55 -13 -103 9 -79 36 -116 114 -156 54 -29
73 -33 137 -33 42 0 96 5 121 12 41 10 47 9 59 -7 8 -10 15 -17 18 -14 7 8 14
489 7 494 -4 2 -13 -1 -20 -8z m-74 -78 c44 -21 68 -53 74 -99 4 -24 0 -26
-81 -42 -50 -11 -118 -17 -165 -15 l-80 2 -3 30 c-7 67 86 145 172 145 22 0
59 -9 83 -21z m-32 -209 c50 -6 95 -12 102 -15 19 -7 -3 -65 -36 -99 -25 -25
-40 -30 -90 -34 -52 -4 -67 -1 -105 22 -50 29 -102 105 -92 133 7 17 15 17
221 -7z"/>
<path d="M5506 7591 l-39 -40 -26 28 c-45 48 -62 47 -134 -7 -36 -28 -71 -52
-78 -54 -7 -2 -9 -9 -5 -17 6 -9 16 -7 42 9 60 35 87 23 119 -55 25 -59 -2
-181 -52 -237 -9 -10 -11 -18 -5 -18 17 0 80 58 99 91 l17 28 54 -51 54 -51
54 54 54 53 -37 19 c-111 56 -165 126 -134 175 7 12 14 11 39 -2 43 -22 94
-20 126 5 l26 20 -66 45 c-37 24 -67 44 -68 44 -1 0 -19 -18 -40 -39z"/>
<path d="M5854 7522 c-83 -55 -115 -92 -125 -147 -12 -66 2 -117 51 -180 38
-49 78 -75 117 -75 8 0 44 28 79 62 63 60 85 94 42 64 -70 -49 -200 14 -222
106 -7 32 12 85 42 111 19 18 21 17 45 -7 29 -29 90 -36 120 -13 16 11 12 17
-36 65 l-53 52 -60 -38z"/>
<path d="M6234 7504 c-91 -45 -154 -138 -154 -229 0 -73 39 -148 94 -180 24
-14 48 -25 55 -25 7 0 42 25 77 56 69 61 104 129 104 203 0 69 -45 148 -100
176 -35 18 -37 18 -76 -1z m24 -94 c57 -41 76 -81 69 -144 -5 -48 -34 -126
-46 -126 -16 0 -101 84 -115 114 -25 53 -21 118 10 155 14 17 29 31 33 31 5 0
27 -13 49 -30z"/>
<path d="M6460 7336 c0 -17 22 -26 61 -26 35 0 40 25 7 34 -39 10 -68 7 -68
-8z"/>
<path d="M6455 7270 c-7 -12 36 -30 71 -30 27 0 33 24 8 34 -25 9 -72 7 -79
-4z"/>
<path d="M4746 6903 c3 -139 10 -247 16 -260 6 -13 22 -30 36 -39 25 -16 26
-16 72 37 l48 54 -27 3 c-48 6 -51 21 -51 233 0 217 3 209 -66 209 l-34 0 6
-237z"/>
<path d="M5486 7084 c-21 -25 -56 -57 -78 -71 l-40 -27 27 -22 c27 -21 27 -24
25 -115 -5 -148 -3 -167 25 -194 38 -39 78 -33 125 17 39 43 44 66 10 48 -12
-7 -27 -7 -44 0 -26 9 -26 11 -26 120 l0 110 40 0 c33 0 40 3 40 20 0 16 -7
20 -35 20 -44 0 -51 15 -35 80 7 28 10 53 8 55 -2 3 -21 -16 -42 -41z"/>
<path d="M5078 6989 c-60 -63 -67 -83 -48 -135 8 -20 7 -31 -4 -43 -25 -29
-46 -79 -46 -111 0 -27 33 -110 44 -110 2 0 25 17 51 39 79 66 86 67 125 31
l34 -32 53 59 c29 32 52 61 53 66 0 4 -11 5 -24 1 -17 -4 -31 1 -46 16 -20 20
-21 30 -19 116 l3 94 -34 35 c-50 51 -73 47 -142 -26z m66 -40 c22 -17 26 -28
26 -70 0 -58 -12 -67 -65 -49 -54 18 -72 71 -39 118 19 28 44 28 78 1z m26
-182 c0 -25 -6 -36 -29 -50 -38 -22 -48 -22 -66 7 -12 18 -13 30 -6 50 9 23
16 26 56 26 44 0 45 -1 45 -33z"/>
<path d="M5682 6952 c-23 -20 -42 -40 -42 -43 0 -4 11 -10 25 -13 37 -9 48
-47 41 -141 -5 -69 -4 -84 14 -112 28 -47 56 -50 135 -14 79 36 75 35 75 17 0
-8 14 -26 31 -41 l32 -26 26 23 c14 13 28 24 30 25 2 1 -4 19 -14 39 -15 31
-16 53 -10 135 l7 99 -44 45 -43 45 -42 -36 c-24 -20 -43 -39 -43 -44 0 -5 14
-11 31 -15 20 -5 34 -16 40 -33 15 -38 7 -151 -12 -163 -19 -12 -71 -11 -103
1 -26 9 -26 11 -26 118 l0 108 -32 31 -33 32 -43 -37z"/>
<path d="M6153 6887 l-53 -42 37 -12 c63 -22 63 -22 63 -175 l0 -139 43 3 42
3 3 142 c2 134 4 142 23 148 16 5 31 -2 59 -30 l38 -37 46 42 c25 23 43 46 40
51 -3 5 -10 7 -16 3 -5 -3 -22 5 -36 18 -58 52 -58 52 -95 24 -19 -14 -39 -26
-44 -26 -6 0 -27 16 -46 35 -19 19 -39 35 -43 35 -5 -1 -33 -20 -61 -43z"/>
<path d="M4458 5830 c-41 -12 -88 -43 -88 -57 0 -22 25 -25 64 -9 40 17 40 17
25 -18 -9 -19 -8 -31 5 -57 9 -18 15 -34 13 -36 -2 -2 -18 2 -36 8 -45 16 -50
4 -10 -20 23 -14 51 -21 88 -21 46 0 68 8 147 50 51 28 100 50 108 50 9 0 16
5 16 10 0 6 -6 10 -14 10 -8 0 -61 23 -117 50 -103 50 -141 58 -201 40z m217
-93 c18 -14 16 -16 -44 -47 -59 -29 -62 -30 -47 -8 18 25 21 74 6 83 -5 3 -10
11 -10 16 0 10 60 -18 95 -44z"/>
</g>
</svg>
