<?xml version="1.0" standalone="no"?>
<!DOCTYPE svg PUBLIC "-//W3C//DTD SVG 20010904//EN"
 "http://www.w3.org/TR/2001/REC-SVG-20010904/DTD/svg10.dtd">
<svg version="1.0" xmlns="http://www.w3.org/2000/svg"
 width="357.000000pt" height="357.000000pt" viewBox="0 0 357.000000 357.000000"
 preserveAspectRatio="xMidYMid meet">
<metadata>
Created by potrace 1.14, written by Peter Selinger 2001-2017
</metadata>
<g transform="translate(0.000000,357.000000) scale(0.100000,-0.100000)"
fill="#000000" stroke="none">
<path d="M1730 3493 c-56 -83 -174 -204 -265 -271 -61 -46 -251 -149 -287
-156 -7 -2 -20 -6 -28 -9 -30 -13 -176 -48 -230 -55 -71 -9 -279 -9 -350 1
-30 4 -82 14 -114 22 -32 9 -61 13 -64 10 -15 -15 -5 -597 13 -695 2 -14 6
-46 9 -71 3 -26 13 -82 22 -125 9 -44 18 -92 21 -108 16 -100 125 -445 174
-553 10 -24 19 -46 19 -50 0 -3 36 -80 81 -170 49 -99 85 -161 91 -157 7 4 8
2 4 -5 -14 -23 201 -346 348 -521 151 -181 409 -426 592 -562 11 -8 67 30 164
112 437 370 738 771 970 1295 58 130 155 421 175 522 1 10 8 36 14 58 11 45
48 244 56 308 13 105 15 129 22 237 11 184 6 477 -9 486 -4 3 -25 0 -45 -6
-139 -41 -403 -48 -553 -15 -323 71 -578 243 -770 523 -15 21 -16 20 -60 -45z
m-276 -1021 c3 -5 -1 -9 -9 -9 -8 0 -12 4 -9 9 3 4 7 8 9 8 2 0 6 -4 9 -8z"/>
</g>
</svg>
